<svg width="1920" height="616" viewBox="0 0 1920 616" fill="none" xmlns="http://www.w3.org/2000/svg">
<g opacity="0.2" filter="url(#filter0_d_901_199)">
<mask id="path-1-outside-1_901_199" maskUnits="userSpaceOnUse" x="207" y="225" width="1473" height="178" fill="black">
<rect fill="white" x="207" y="225" width="1473" height="178"/>
<path d="M277.2 391C255.467 391 239.333 384.8 228.8 372.4C218.267 359.867 213 342.733 213 321C213 304.067 215.733 288.8 221.2 275.2C226.8 261.6 235.133 250.867 246.2 243C257.4 235 270.933 231 286.8 231C306.533 231 320.733 236.333 329.4 247C338.067 257.667 342.4 271.933 342.4 289.8C342.4 304.733 340.333 316.867 336.2 326.2C332.067 335.533 327 342.267 321 346.4C315.133 350.4 309.267 352.4 303.4 352.4C292.6 352.4 286.8 348 286 339.2H285.6C283.6 343.333 281.067 346.4 278 348.4C274.933 350.267 271.2 351.2 266.8 351.2C260.8 351.2 256.133 349.133 252.8 345C249.6 340.733 248 334.8 248 327.2C248 325.6 248.133 323.333 248.4 320.4L250.6 300.2C252.867 280.467 260.867 270.6 274.6 270.6C282.867 270.6 288.333 274.667 291 282.8H291.4L293.2 271.4H311.8L306 327.2L305.8 330.4C305.8 332.933 307.133 334.2 309.8 334.2C315 334.2 318.933 329.667 321.6 320.6C324.4 311.4 325.8 301.267 325.8 290.2C325.8 277.133 322.533 266.867 316 259.4C309.467 251.8 299.467 248 286 248C268.4 248 254.933 254.533 245.6 267.6C236.4 280.667 231.8 298.8 231.8 322C231.8 338.533 235.667 351.4 243.4 360.6C251.267 369.667 262.933 374.2 278.4 374.2C286.4 374.2 293.6 373.2 300 371.2C306.533 369.2 313.133 365.667 319.8 360.6L318.2 379.8C311.933 383.933 305.533 386.8 299 388.4C292.467 390.133 285.2 391 277.2 391ZM276.4 332.6C282.933 332.6 286.667 328.4 287.6 320L289.6 301L289.8 298.6C289.8 295.667 289 293.467 287.4 292C285.8 290.533 283.667 289.8 281 289.8C277.667 289.8 275.067 290.8 273.2 292.8C271.333 294.667 270.133 297.867 269.6 302.4L267.8 319.4L267.6 322.4C267.6 325.867 268.333 328.467 269.8 330.2C271.4 331.8 273.6 332.6 276.4 332.6ZM355.458 239H389.058C399.991 239 408.191 241.933 413.658 247.8C419.124 253.667 421.858 262.267 421.858 273.6V344.4C421.858 355.733 419.124 364.333 413.658 370.2C408.191 376.067 399.991 379 389.058 379H355.458V239ZM388.658 359C392.258 359 394.991 357.933 396.858 355.8C398.858 353.667 399.858 350.2 399.858 345.4V272.6C399.858 267.8 398.858 264.333 396.858 262.2C394.991 260.067 392.258 259 388.658 259H377.458V359H388.658ZM436.708 239H496.708V259H458.708V296H488.908V316H458.708V359H496.708V379H436.708V239ZM503.564 239H525.764L540.164 347.6H540.564L554.964 239H575.164L553.964 379H524.764L503.564 239ZM616.541 381C605.874 381 597.741 378 592.141 372C586.541 365.867 583.741 357.133 583.741 345.8V272.2C583.741 260.867 586.541 252.2 592.141 246.2C597.741 240.067 605.874 237 616.541 237C627.207 237 635.341 240.067 640.941 246.2C646.541 252.2 649.341 260.867 649.341 272.2V284.2H628.541V270.8C628.541 261.6 624.741 257 617.141 257C609.541 257 605.741 261.6 605.741 270.8V347.4C605.741 356.467 609.541 361 617.141 361C624.741 361 628.541 356.467 628.541 347.4V320H617.541V300H649.341V345.8C649.341 357.133 646.541 365.867 640.941 372C635.341 378 627.207 381 616.541 381ZM695.466 381C684.799 381 676.666 378 671.066 372C665.466 365.867 662.666 357.133 662.666 345.8V239H684.666V347.4C684.666 352.2 685.599 355.667 687.466 357.8C689.466 359.933 692.266 361 695.866 361C699.466 361 702.199 359.933 704.066 357.8C706.066 355.667 707.066 352.2 707.066 347.4V239H728.266V345.8C728.266 357.133 725.466 365.867 719.866 372C714.266 378 706.132 381 695.466 381ZM772.534 381C761.868 381 753.801 378 748.334 372C742.868 365.867 740.134 357.133 740.134 345.8V337.8H760.934V347.4C760.934 356.467 764.734 361 772.334 361C776.068 361 778.868 359.933 780.734 357.8C782.734 355.533 783.734 351.933 783.734 347C783.734 341.133 782.401 336 779.734 331.6C777.068 327.067 772.134 321.667 764.934 315.4C755.868 307.4 749.534 300.2 745.934 293.8C742.334 287.267 740.534 279.933 740.534 271.8C740.534 260.733 743.334 252.2 748.934 246.2C754.534 240.067 762.668 237 773.334 237C783.868 237 791.801 240.067 797.134 246.2C802.601 252.2 805.334 260.867 805.334 272.2V278H784.534V270.8C784.534 266 783.601 262.533 781.734 260.4C779.868 258.133 777.134 257 773.534 257C766.201 257 762.534 261.467 762.534 270.4C762.534 275.467 763.868 280.2 766.534 284.6C769.334 289 774.334 294.333 781.534 300.6C790.734 308.6 797.068 315.867 800.534 322.4C804.001 328.933 805.734 336.6 805.734 345.4C805.734 356.867 802.868 365.667 797.134 371.8C791.534 377.933 783.334 381 772.534 381ZM835.548 259H812.548V239H880.548V259H857.548V379H835.548V259ZM899.02 239H928.82L951.62 379H929.62L925.62 351.2V351.6H900.62L896.62 379H876.22L899.02 239ZM923.02 332.6L913.22 263.4H912.82L903.22 332.6H923.02ZM950.83 239H973.03L987.43 347.6H987.83L1002.23 239H1022.43L1001.23 379H972.03L950.83 239ZM1064.41 381C1053.61 381 1045.34 377.933 1039.61 371.8C1033.87 365.667 1031.01 357 1031.01 345.8V272.2C1031.01 261 1033.87 252.333 1039.61 246.2C1045.34 240.067 1053.61 237 1064.41 237C1075.21 237 1083.47 240.067 1089.21 246.2C1094.94 252.333 1097.81 261 1097.81 272.2V345.8C1097.81 357 1094.94 365.667 1089.21 371.8C1083.47 377.933 1075.21 381 1064.41 381ZM1064.41 361C1072.01 361 1075.81 356.4 1075.81 347.2V270.8C1075.81 261.6 1072.01 257 1064.41 257C1056.81 257 1053.01 261.6 1053.01 270.8V347.2C1053.01 356.4 1056.81 361 1064.41 361ZM1143.88 381C1133.22 381 1125.08 378 1119.48 372C1113.88 365.867 1111.08 357.133 1111.08 345.8V272.2C1111.08 260.867 1113.88 252.2 1119.48 246.2C1125.08 240.067 1133.22 237 1143.88 237C1154.55 237 1162.68 240.067 1168.28 246.2C1173.88 252.2 1176.68 260.867 1176.68 272.2V284.2H1155.88V270.8C1155.88 261.6 1152.08 257 1144.48 257C1136.88 257 1133.08 261.6 1133.08 270.8V347.4C1133.08 356.467 1136.88 361 1144.48 361C1152.08 361 1155.88 356.467 1155.88 347.4V320H1144.88V300H1176.68V345.8C1176.68 357.133 1173.88 365.867 1168.28 372C1162.68 378 1154.55 381 1143.88 381ZM1207.81 239H1237.61L1260.41 379H1238.41L1234.41 351.2V351.6H1209.41L1205.41 379H1185.01L1207.81 239ZM1231.81 332.6L1222.01 263.4H1221.61L1212.01 332.6H1231.81ZM1271.08 239H1298.68L1320.08 322.8H1320.48V239H1340.08V379H1317.48L1291.08 276.8H1290.68V379H1271.08V239ZM1373.63 259H1350.63V239H1418.63V259H1395.63V379H1373.63V259ZM1460.3 381C1449.5 381 1441.24 377.933 1435.5 371.8C1429.77 365.667 1426.9 357 1426.9 345.8V272.2C1426.9 261 1429.77 252.333 1435.5 246.2C1441.24 240.067 1449.5 237 1460.3 237C1471.1 237 1479.37 240.067 1485.1 246.2C1490.84 252.333 1493.7 261 1493.7 272.2V345.8C1493.7 357 1490.84 365.667 1485.1 371.8C1479.37 377.933 1471.1 381 1460.3 381ZM1460.3 361C1467.9 361 1471.7 356.4 1471.7 347.2V270.8C1471.7 261.6 1467.9 257 1460.3 257C1452.7 257 1448.9 261.6 1448.9 270.8V347.2C1448.9 356.4 1452.7 361 1460.3 361ZM1508.58 239H1530.58V379H1508.58V239ZM1575.66 381C1564.99 381 1556.93 378 1551.46 372C1545.99 365.867 1543.26 357.133 1543.26 345.8V337.8H1564.06V347.4C1564.06 356.467 1567.86 361 1575.46 361C1579.19 361 1581.99 359.933 1583.86 357.8C1585.86 355.533 1586.86 351.933 1586.86 347C1586.86 341.133 1585.53 336 1582.86 331.6C1580.19 327.067 1575.26 321.667 1568.06 315.4C1558.99 307.4 1552.66 300.2 1549.06 293.8C1545.46 287.267 1543.66 279.933 1543.66 271.8C1543.66 260.733 1546.46 252.2 1552.06 246.2C1557.66 240.067 1565.79 237 1576.46 237C1586.99 237 1594.93 240.067 1600.26 246.2C1605.73 252.2 1608.46 260.867 1608.46 272.2V278H1587.66V270.8C1587.66 266 1586.73 262.533 1584.86 260.4C1582.99 258.133 1580.26 257 1576.66 257C1569.33 257 1565.66 261.467 1565.66 270.4C1565.66 275.467 1566.99 280.2 1569.66 284.6C1572.46 289 1577.46 294.333 1584.66 300.6C1593.86 308.6 1600.19 315.867 1603.66 322.4C1607.13 328.933 1608.86 336.6 1608.86 345.4C1608.86 356.867 1605.99 365.667 1600.26 371.8C1594.66 377.933 1586.46 381 1575.66 381ZM1613.27 381H1673.27V397H1613.27V381Z"/>
</mask>
<path d="M277.2 391C255.467 391 239.333 384.8 228.8 372.4C218.267 359.867 213 342.733 213 321C213 304.067 215.733 288.8 221.2 275.2C226.8 261.6 235.133 250.867 246.2 243C257.4 235 270.933 231 286.8 231C306.533 231 320.733 236.333 329.4 247C338.067 257.667 342.4 271.933 342.4 289.8C342.4 304.733 340.333 316.867 336.2 326.2C332.067 335.533 327 342.267 321 346.4C315.133 350.4 309.267 352.4 303.4 352.4C292.6 352.4 286.8 348 286 339.2H285.6C283.6 343.333 281.067 346.4 278 348.4C274.933 350.267 271.2 351.2 266.8 351.2C260.8 351.2 256.133 349.133 252.8 345C249.6 340.733 248 334.8 248 327.2C248 325.6 248.133 323.333 248.4 320.4L250.6 300.2C252.867 280.467 260.867 270.6 274.6 270.6C282.867 270.6 288.333 274.667 291 282.8H291.4L293.2 271.4H311.8L306 327.2L305.8 330.4C305.8 332.933 307.133 334.2 309.8 334.2C315 334.2 318.933 329.667 321.6 320.6C324.4 311.4 325.8 301.267 325.8 290.2C325.8 277.133 322.533 266.867 316 259.4C309.467 251.8 299.467 248 286 248C268.4 248 254.933 254.533 245.6 267.6C236.4 280.667 231.8 298.8 231.8 322C231.8 338.533 235.667 351.4 243.4 360.6C251.267 369.667 262.933 374.2 278.4 374.2C286.4 374.2 293.6 373.2 300 371.2C306.533 369.2 313.133 365.667 319.8 360.6L318.2 379.8C311.933 383.933 305.533 386.8 299 388.4C292.467 390.133 285.2 391 277.2 391ZM276.4 332.6C282.933 332.6 286.667 328.4 287.6 320L289.6 301L289.8 298.6C289.8 295.667 289 293.467 287.4 292C285.8 290.533 283.667 289.8 281 289.8C277.667 289.8 275.067 290.8 273.2 292.8C271.333 294.667 270.133 297.867 269.6 302.4L267.8 319.4L267.6 322.4C267.6 325.867 268.333 328.467 269.8 330.2C271.4 331.8 273.6 332.6 276.4 332.6ZM355.458 239H389.058C399.991 239 408.191 241.933 413.658 247.8C419.124 253.667 421.858 262.267 421.858 273.6V344.4C421.858 355.733 419.124 364.333 413.658 370.2C408.191 376.067 399.991 379 389.058 379H355.458V239ZM388.658 359C392.258 359 394.991 357.933 396.858 355.8C398.858 353.667 399.858 350.2 399.858 345.4V272.6C399.858 267.8 398.858 264.333 396.858 262.2C394.991 260.067 392.258 259 388.658 259H377.458V359H388.658ZM436.708 239H496.708V259H458.708V296H488.908V316H458.708V359H496.708V379H436.708V239ZM503.564 239H525.764L540.164 347.6H540.564L554.964 239H575.164L553.964 379H524.764L503.564 239ZM616.541 381C605.874 381 597.741 378 592.141 372C586.541 365.867 583.741 357.133 583.741 345.8V272.2C583.741 260.867 586.541 252.2 592.141 246.2C597.741 240.067 605.874 237 616.541 237C627.207 237 635.341 240.067 640.941 246.2C646.541 252.2 649.341 260.867 649.341 272.2V284.2H628.541V270.8C628.541 261.6 624.741 257 617.141 257C609.541 257 605.741 261.6 605.741 270.8V347.4C605.741 356.467 609.541 361 617.141 361C624.741 361 628.541 356.467 628.541 347.4V320H617.541V300H649.341V345.8C649.341 357.133 646.541 365.867 640.941 372C635.341 378 627.207 381 616.541 381ZM695.466 381C684.799 381 676.666 378 671.066 372C665.466 365.867 662.666 357.133 662.666 345.8V239H684.666V347.4C684.666 352.2 685.599 355.667 687.466 357.8C689.466 359.933 692.266 361 695.866 361C699.466 361 702.199 359.933 704.066 357.8C706.066 355.667 707.066 352.2 707.066 347.4V239H728.266V345.8C728.266 357.133 725.466 365.867 719.866 372C714.266 378 706.132 381 695.466 381ZM772.534 381C761.868 381 753.801 378 748.334 372C742.868 365.867 740.134 357.133 740.134 345.8V337.8H760.934V347.4C760.934 356.467 764.734 361 772.334 361C776.068 361 778.868 359.933 780.734 357.8C782.734 355.533 783.734 351.933 783.734 347C783.734 341.133 782.401 336 779.734 331.6C777.068 327.067 772.134 321.667 764.934 315.4C755.868 307.4 749.534 300.2 745.934 293.8C742.334 287.267 740.534 279.933 740.534 271.8C740.534 260.733 743.334 252.2 748.934 246.2C754.534 240.067 762.668 237 773.334 237C783.868 237 791.801 240.067 797.134 246.2C802.601 252.2 805.334 260.867 805.334 272.2V278H784.534V270.8C784.534 266 783.601 262.533 781.734 260.4C779.868 258.133 777.134 257 773.534 257C766.201 257 762.534 261.467 762.534 270.4C762.534 275.467 763.868 280.2 766.534 284.6C769.334 289 774.334 294.333 781.534 300.6C790.734 308.6 797.068 315.867 800.534 322.4C804.001 328.933 805.734 336.6 805.734 345.4C805.734 356.867 802.868 365.667 797.134 371.8C791.534 377.933 783.334 381 772.534 381ZM835.548 259H812.548V239H880.548V259H857.548V379H835.548V259ZM899.02 239H928.82L951.62 379H929.62L925.62 351.2V351.6H900.62L896.62 379H876.22L899.02 239ZM923.02 332.6L913.22 263.4H912.82L903.22 332.6H923.02ZM950.83 239H973.03L987.43 347.6H987.83L1002.23 239H1022.43L1001.23 379H972.03L950.83 239ZM1064.41 381C1053.61 381 1045.34 377.933 1039.61 371.8C1033.87 365.667 1031.01 357 1031.01 345.8V272.2C1031.01 261 1033.87 252.333 1039.61 246.2C1045.34 240.067 1053.61 237 1064.41 237C1075.21 237 1083.47 240.067 1089.21 246.2C1094.94 252.333 1097.81 261 1097.81 272.2V345.8C1097.81 357 1094.94 365.667 1089.21 371.8C1083.47 377.933 1075.21 381 1064.41 381ZM1064.41 361C1072.01 361 1075.81 356.4 1075.81 347.2V270.8C1075.81 261.6 1072.01 257 1064.41 257C1056.81 257 1053.01 261.6 1053.01 270.8V347.2C1053.01 356.4 1056.81 361 1064.41 361ZM1143.88 381C1133.22 381 1125.08 378 1119.48 372C1113.88 365.867 1111.08 357.133 1111.08 345.8V272.2C1111.08 260.867 1113.88 252.2 1119.48 246.2C1125.08 240.067 1133.22 237 1143.88 237C1154.55 237 1162.68 240.067 1168.28 246.2C1173.88 252.2 1176.68 260.867 1176.68 272.2V284.2H1155.88V270.8C1155.88 261.6 1152.08 257 1144.48 257C1136.88 257 1133.08 261.6 1133.08 270.8V347.4C1133.08 356.467 1136.88 361 1144.48 361C1152.08 361 1155.88 356.467 1155.88 347.4V320H1144.88V300H1176.68V345.8C1176.68 357.133 1173.88 365.867 1168.28 372C1162.68 378 1154.55 381 1143.88 381ZM1207.81 239H1237.61L1260.41 379H1238.41L1234.41 351.2V351.6H1209.41L1205.41 379H1185.01L1207.81 239ZM1231.81 332.6L1222.01 263.4H1221.61L1212.01 332.6H1231.81ZM1271.08 239H1298.68L1320.08 322.8H1320.48V239H1340.08V379H1317.48L1291.08 276.8H1290.68V379H1271.08V239ZM1373.63 259H1350.63V239H1418.63V259H1395.63V379H1373.63V259ZM1460.3 381C1449.5 381 1441.24 377.933 1435.5 371.8C1429.77 365.667 1426.9 357 1426.9 345.8V272.2C1426.9 261 1429.77 252.333 1435.5 246.2C1441.24 240.067 1449.5 237 1460.3 237C1471.1 237 1479.37 240.067 1485.1 246.2C1490.84 252.333 1493.7 261 1493.7 272.2V345.8C1493.7 357 1490.84 365.667 1485.1 371.8C1479.37 377.933 1471.1 381 1460.3 381ZM1460.3 361C1467.9 361 1471.7 356.4 1471.7 347.2V270.8C1471.7 261.6 1467.9 257 1460.3 257C1452.7 257 1448.9 261.6 1448.9 270.8V347.2C1448.9 356.4 1452.7 361 1460.3 361ZM1508.58 239H1530.58V379H1508.58V239ZM1575.66 381C1564.99 381 1556.93 378 1551.46 372C1545.99 365.867 1543.26 357.133 1543.26 345.8V337.8H1564.06V347.4C1564.06 356.467 1567.86 361 1575.46 361C1579.19 361 1581.99 359.933 1583.86 357.8C1585.86 355.533 1586.86 351.933 1586.86 347C1586.86 341.133 1585.53 336 1582.86 331.6C1580.19 327.067 1575.26 321.667 1568.06 315.4C1558.99 307.4 1552.66 300.2 1549.06 293.8C1545.46 287.267 1543.66 279.933 1543.66 271.8C1543.66 260.733 1546.46 252.2 1552.06 246.2C1557.66 240.067 1565.79 237 1576.46 237C1586.99 237 1594.93 240.067 1600.26 246.2C1605.73 252.2 1608.46 260.867 1608.46 272.2V278H1587.66V270.8C1587.66 266 1586.73 262.533 1584.86 260.4C1582.99 258.133 1580.26 257 1576.66 257C1569.33 257 1565.66 261.467 1565.66 270.4C1565.66 275.467 1566.99 280.2 1569.66 284.6C1572.46 289 1577.46 294.333 1584.66 300.6C1593.86 308.6 1600.19 315.867 1603.66 322.4C1607.13 328.933 1608.86 336.6 1608.86 345.4C1608.86 356.867 1605.99 365.667 1600.26 371.8C1594.66 377.933 1586.46 381 1575.66 381ZM1613.27 381H1673.27V397H1613.27V381Z" fill="black"/>
<path d="M228.8 372.4L224.207 376.26L224.217 376.272L224.227 376.284L228.8 372.4ZM221.2 275.2L215.652 272.915L215.642 272.939L215.633 272.962L221.2 275.2ZM246.2 243L249.676 247.89L249.687 247.882L246.2 243ZM329.4 247L334.057 243.216L329.4 247ZM336.2 326.2L341.686 328.63V328.63L336.2 326.2ZM321 346.4L324.38 351.357L324.392 351.349L324.404 351.341L321 346.4ZM286 339.2L291.975 338.657L291.479 333.2H286V339.2ZM285.6 339.2V333.2H281.838L280.199 336.587L285.6 339.2ZM278 348.4L281.12 353.525L281.199 353.477L281.278 353.426L278 348.4ZM252.8 345L248 348.6L248.063 348.684L248.13 348.767L252.8 345ZM248.4 320.4L242.435 319.75L242.429 319.804L242.425 319.857L248.4 320.4ZM250.6 300.2L244.639 299.515L244.637 299.533L244.635 299.55L250.6 300.2ZM291 282.8L285.299 284.669L286.653 288.8H291V282.8ZM291.4 282.8V288.8H296.527L297.327 283.736L291.4 282.8ZM293.2 271.4V265.4H288.073L287.273 270.464L293.2 271.4ZM311.8 271.4L317.768 272.02L318.456 265.4H311.8V271.4ZM306 327.2L300.032 326.58L300.019 326.702L300.012 326.826L306 327.2ZM305.8 330.4L299.812 330.026L299.8 330.213V330.4H305.8ZM321.6 320.6L315.86 318.853L315.852 318.88L315.844 318.907L321.6 320.6ZM316 259.4L311.45 263.311L311.467 263.331L311.485 263.351L316 259.4ZM245.6 267.6L240.718 264.113L240.706 264.129L240.694 264.146L245.6 267.6ZM243.4 360.6L238.807 364.461L238.837 364.497L238.868 364.532L243.4 360.6ZM300 371.2L298.244 365.463L298.227 365.468L298.21 365.473L300 371.2ZM319.8 360.6L325.779 361.098L326.898 347.669L316.17 355.823L319.8 360.6ZM318.2 379.8L321.504 384.809L323.937 383.203L324.179 380.298L318.2 379.8ZM299 388.4L297.573 382.572L297.517 382.586L297.461 382.601L299 388.4ZM287.6 320L293.563 320.663L293.565 320.645L293.567 320.628L287.6 320ZM289.6 301L295.567 301.628L295.574 301.563L295.579 301.498L289.6 301ZM289.8 298.6L295.779 299.098L295.8 298.85V298.6H289.8ZM287.4 292L291.454 287.577L291.454 287.577L287.4 292ZM273.2 292.8L277.443 297.043L277.516 296.97L277.586 296.894L273.2 292.8ZM269.6 302.4L263.641 301.699L263.637 301.734L263.633 301.768L269.6 302.4ZM267.8 319.4L261.833 318.768L261.821 318.884L261.813 319.001L267.8 319.4ZM267.6 322.4L261.613 322.001L261.6 322.2V322.4H267.6ZM269.8 330.2L265.22 334.076L265.381 334.266L265.557 334.443L269.8 330.2ZM277.2 385C256.601 385 242.415 379.16 233.373 368.516L224.227 376.284C236.252 390.44 254.333 397 277.2 397V385ZM233.393 368.54C224.029 357.398 219 341.788 219 321H207C207 343.679 212.504 362.336 224.207 376.26L233.393 368.54ZM219 321C219 304.716 221.627 290.225 226.767 277.438L215.633 272.962C209.839 287.375 207 303.418 207 321H219ZM226.748 277.484C231.954 264.841 239.609 255.047 249.676 247.89L242.724 238.11C230.658 246.687 221.646 258.359 215.652 272.915L226.748 277.484ZM249.687 247.882C259.72 240.716 271.986 237 286.8 237V225C269.881 225 255.08 229.284 242.713 238.118L249.687 247.882ZM286.8 237C305.545 237 317.648 242.051 324.743 250.784L334.057 243.216C323.819 230.616 307.521 225 286.8 225V237ZM324.743 250.784C332.31 260.096 336.4 272.893 336.4 289.8H348.4C348.4 270.974 343.824 255.238 334.057 243.216L324.743 250.784ZM336.4 289.8C336.4 304.252 334.389 315.471 330.714 323.77L341.686 328.63C346.277 318.262 348.4 305.215 348.4 289.8H336.4ZM330.714 323.77C326.857 332.479 322.388 338.158 317.596 341.459L324.404 351.341C331.612 346.375 337.276 338.588 341.686 328.63L330.714 323.77ZM317.62 341.443C312.537 344.908 307.827 346.4 303.4 346.4V358.4C310.706 358.4 317.73 355.892 324.38 351.357L317.62 341.443ZM303.4 346.4C298.704 346.4 296.036 345.427 294.576 344.32C293.302 343.353 292.258 341.766 291.975 338.657L280.025 339.743C280.542 345.434 282.798 350.447 287.324 353.88C291.664 357.173 297.296 358.4 303.4 358.4V346.4ZM286 333.2H285.6V345.2H286V333.2ZM280.199 336.587C278.555 339.985 276.67 342.104 274.722 343.374L281.278 353.426C285.464 350.696 288.645 346.682 291.001 341.813L280.199 336.587ZM274.88 343.275C272.945 344.453 270.348 345.2 266.8 345.2V357.2C272.052 357.2 276.922 356.081 281.12 353.525L274.88 343.275ZM266.8 345.2C262.348 345.2 259.507 343.759 257.47 341.233L248.13 348.767C252.759 354.507 259.252 357.2 266.8 357.2V345.2ZM257.6 341.4C255.448 338.531 254 334.037 254 327.2H242C242 335.563 243.752 342.936 248 348.6L257.6 341.4ZM254 327.2C254 325.873 254.114 323.819 254.375 320.943L242.425 319.857C242.153 322.848 242 325.327 242 327.2H254ZM254.365 321.05L256.565 300.85L244.635 299.55L242.435 319.75L254.365 321.05ZM256.561 300.885C257.631 291.565 259.978 285.457 262.961 281.779C265.72 278.376 269.374 276.6 274.6 276.6V264.6C266.092 264.6 258.88 267.757 253.639 274.221C248.622 280.409 245.835 289.102 244.639 299.515L256.561 300.885ZM274.6 276.6C277.725 276.6 279.826 277.353 281.319 278.464C282.83 279.588 284.252 281.476 285.299 284.669L296.701 280.931C295.082 275.991 292.437 271.779 288.481 268.836C284.507 265.88 279.742 264.6 274.6 264.6V276.6ZM291 288.8H291.4V276.8H291V288.8ZM297.327 283.736L299.127 272.336L287.273 270.464L285.473 281.864L297.327 283.736ZM293.2 277.4H311.8V265.4H293.2V277.4ZM305.832 270.78L300.032 326.58L311.968 327.82L317.768 272.02L305.832 270.78ZM300.012 326.826L299.812 330.026L311.788 330.774L311.988 327.574L300.012 326.826ZM299.8 330.4C299.8 332.672 300.413 335.458 302.668 337.6C304.864 339.687 307.616 340.2 309.8 340.2V328.2C309.317 328.2 310.069 328.08 310.933 328.9C311.853 329.775 311.8 330.661 311.8 330.4H299.8ZM309.8 340.2C314.416 340.2 318.271 338.088 321.182 334.732C323.944 331.549 325.905 327.228 327.356 322.293L315.844 318.907C314.629 323.038 313.29 325.518 312.118 326.868C311.096 328.046 310.384 328.2 309.8 328.2V340.2ZM327.34 322.347C330.336 312.503 331.8 301.771 331.8 290.2H319.8C319.8 300.762 318.464 310.297 315.86 318.853L327.34 322.347ZM331.8 290.2C331.8 276.149 328.275 264.317 320.515 255.449L311.485 263.351C316.792 269.416 319.8 278.118 319.8 290.2H331.8ZM320.55 255.489C312.52 246.147 300.581 242 286 242V254C298.353 254 306.414 257.453 311.45 263.311L320.55 255.489ZM286 242C266.679 242 251.298 249.3 240.718 264.113L250.482 271.087C258.569 259.766 270.121 254 286 254V242ZM240.694 264.146C230.527 278.587 225.8 298.097 225.8 322H237.8C237.8 299.503 242.273 282.747 250.506 271.054L240.694 264.146ZM225.8 322C225.8 339.417 229.875 353.834 238.807 364.461L247.993 356.739C241.459 348.966 237.8 337.65 237.8 322H225.8ZM238.868 364.532C248.184 375.27 261.731 380.2 278.4 380.2V368.2C264.135 368.2 254.349 364.064 247.932 356.668L238.868 364.532ZM278.4 380.2C286.893 380.2 294.711 379.139 301.79 376.927L298.21 365.473C292.489 367.261 285.907 368.2 278.4 368.2V380.2ZM301.756 376.937C309.099 374.689 316.323 370.778 323.431 365.377L316.17 355.823C309.943 360.555 303.967 363.711 298.244 365.463L301.756 376.937ZM313.821 360.102L312.221 379.302L324.179 380.298L325.779 361.098L313.821 360.102ZM314.896 374.791C309.138 378.59 303.366 381.154 297.573 382.572L300.427 394.228C307.701 392.446 314.729 389.277 321.504 384.809L314.896 374.791ZM297.461 382.601C291.512 384.179 284.773 385 277.2 385V397C285.627 397 293.421 396.088 300.539 394.199L297.461 382.601ZM276.4 338.6C281.073 338.6 285.39 337.03 288.584 333.436C291.597 330.047 293.025 325.51 293.563 320.663L281.637 319.337C281.242 322.89 280.337 324.653 279.616 325.464C279.077 326.07 278.26 326.6 276.4 326.6V338.6ZM293.567 320.628L295.567 301.628L283.633 300.372L281.633 319.372L293.567 320.628ZM295.579 301.498L295.779 299.098L283.821 298.102L283.621 300.502L295.579 301.498ZM295.8 298.6C295.8 294.601 294.685 290.539 291.454 287.577L283.346 296.423C283.379 296.454 283.464 296.534 283.561 296.8C283.67 297.101 283.8 297.663 283.8 298.6H295.8ZM291.454 287.577C288.508 284.877 284.808 283.8 281 283.8V295.8C282.525 295.8 283.092 296.19 283.346 296.423L291.454 287.577ZM281 283.8C276.395 283.8 272.057 285.231 268.814 288.706L277.586 296.894C278.076 296.369 278.939 295.8 281 295.8V283.8ZM268.957 288.557C265.657 291.857 264.229 296.706 263.641 301.699L275.559 303.101C276.038 299.027 277.009 297.476 277.443 297.043L268.957 288.557ZM263.633 301.768L261.833 318.768L273.767 320.032L275.567 303.032L263.633 301.768ZM261.813 319.001L261.613 322.001L273.587 322.799L273.787 319.799L261.813 319.001ZM261.6 322.4C261.6 326.57 262.461 330.815 265.22 334.076L274.38 326.324C274.206 326.118 273.6 325.164 273.6 322.4H261.6ZM265.557 334.443C268.537 337.422 272.409 338.6 276.4 338.6V326.6C274.791 326.6 274.263 326.178 274.043 325.957L265.557 334.443ZM355.458 239V233H349.458V239H355.458ZM413.658 247.8L409.268 251.89V251.89L413.658 247.8ZM413.658 370.2L418.047 374.29L413.658 370.2ZM355.458 379H349.458V385H355.458V379ZM396.858 355.8L392.481 351.696L392.41 351.771L392.342 351.849L396.858 355.8ZM396.858 262.2L392.342 266.151L392.41 266.229L392.481 266.304L396.858 262.2ZM377.458 259V253H371.458V259H377.458ZM377.458 359H371.458V365H377.458V359ZM355.458 245H389.058V233H355.458V245ZM389.058 245C398.953 245 405.303 247.635 409.268 251.89L418.047 243.71C411.079 236.232 401.029 233 389.058 233V245ZM409.268 251.89C413.339 256.259 415.858 263.157 415.858 273.6H427.858C427.858 261.376 424.91 251.074 418.047 243.71L409.268 251.89ZM415.858 273.6V344.4H427.858V273.6H415.858ZM415.858 344.4C415.858 354.843 413.339 361.741 409.268 366.11L418.047 374.29C424.91 366.926 427.858 356.624 427.858 344.4H415.858ZM409.268 366.11C405.303 370.365 398.953 373 389.058 373V385C401.029 385 411.079 381.768 418.047 374.29L409.268 366.11ZM389.058 373H355.458V385H389.058V373ZM361.458 379V239H349.458V379H361.458ZM388.658 365C393.486 365 398.074 363.522 401.373 359.751L392.342 351.849C391.908 352.345 391.029 353 388.658 353V365ZM401.235 359.904C404.772 356.131 405.858 350.802 405.858 345.4H393.858C393.858 349.598 392.944 351.202 392.481 351.696L401.235 359.904ZM405.858 345.4V272.6H393.858V345.4H405.858ZM405.858 272.6C405.858 267.198 404.772 261.869 401.235 258.096L392.481 266.304C392.944 266.798 393.858 268.402 393.858 272.6H405.858ZM401.373 258.249C398.074 254.478 393.486 253 388.658 253V265C391.029 265 391.908 265.655 392.342 266.151L401.373 258.249ZM388.658 253H377.458V265H388.658V253ZM371.458 259V359H383.458V259H371.458ZM377.458 365H388.658V353H377.458V365ZM436.708 239V233H430.708V239H436.708ZM496.708 239H502.708V233H496.708V239ZM496.708 259V265H502.708V259H496.708ZM458.708 259V253H452.708V259H458.708ZM458.708 296H452.708V302H458.708V296ZM488.908 296H494.908V290H488.908V296ZM488.908 316V322H494.908V316H488.908ZM458.708 316V310H452.708V316H458.708ZM458.708 359H452.708V365H458.708V359ZM496.708 359H502.708V353H496.708V359ZM496.708 379V385H502.708V379H496.708ZM436.708 379H430.708V385H436.708V379ZM436.708 245H496.708V233H436.708V245ZM490.708 239V259H502.708V239H490.708ZM496.708 253H458.708V265H496.708V253ZM452.708 259V296H464.708V259H452.708ZM458.708 302H488.908V290H458.708V302ZM482.908 296V316H494.908V296H482.908ZM488.908 310H458.708V322H488.908V310ZM452.708 316V359H464.708V316H452.708ZM458.708 365H496.708V353H458.708V365ZM490.708 359V379H502.708V359H490.708ZM496.708 373H436.708V385H496.708V373ZM442.708 379V239H430.708V379H442.708ZM503.564 239V233H496.587L497.632 239.898L503.564 239ZM525.764 239L531.712 238.211L531.021 233H525.764V239ZM540.164 347.6L534.216 348.389L534.907 353.6H540.164V347.6ZM540.564 347.6V353.6H545.821L546.512 348.389L540.564 347.6ZM554.964 239V233H549.707L549.016 238.211L554.964 239ZM575.164 239L581.096 239.898L582.141 233H575.164V239ZM553.964 379V385H559.124L559.896 379.898L553.964 379ZM524.764 379L518.832 379.898L519.604 385H524.764V379ZM503.564 245H525.764V233H503.564V245ZM519.816 239.789L534.216 348.389L546.112 346.811L531.712 238.211L519.816 239.789ZM540.164 353.6H540.564V341.6H540.164V353.6ZM546.512 348.389L560.912 239.789L549.016 238.211L534.616 346.811L546.512 348.389ZM554.964 245H575.164V233H554.964V245ZM569.232 238.102L548.032 378.102L559.896 379.898L581.096 239.898L569.232 238.102ZM553.964 373H524.764V385H553.964V373ZM530.696 378.102L509.496 238.102L497.632 239.898L518.832 379.898L530.696 378.102ZM592.141 372L587.71 376.046L587.732 376.07L587.754 376.094L592.141 372ZM592.141 246.2L596.527 250.294L596.549 250.27L596.572 250.246L592.141 246.2ZM640.941 246.2L636.51 250.246L636.532 250.27L636.554 250.294L640.941 246.2ZM649.341 284.2V290.2H655.341V284.2H649.341ZM628.541 284.2H622.541V290.2H628.541V284.2ZM628.541 320H634.541V314H628.541V320ZM617.541 320H611.541V326H617.541V320ZM617.541 300V294H611.541V300H617.541ZM649.341 300H655.341V294H649.341V300ZM640.941 372L645.327 376.094L645.349 376.07L645.372 376.046L640.941 372ZM616.541 375C607.012 375 600.678 372.353 596.527 367.906L587.754 376.094C594.804 383.647 604.736 387 616.541 387V375ZM596.572 367.954C592.3 363.276 589.741 356.188 589.741 345.8H577.741C577.741 358.079 580.782 368.458 587.71 376.046L596.572 367.954ZM589.741 345.8V272.2H577.741V345.8H589.741ZM589.741 272.2C589.741 261.802 592.304 254.819 596.527 250.294L587.754 242.106C580.778 249.581 577.741 259.931 577.741 272.2H589.741ZM596.572 250.246C600.732 245.689 607.051 243 616.541 243V231C604.697 231 594.75 234.444 587.71 242.154L596.572 250.246ZM616.541 243C626.03 243 632.35 245.689 636.51 250.246L645.372 242.154C638.332 234.444 628.384 231 616.541 231V243ZM636.554 250.294C640.778 254.819 643.341 261.802 643.341 272.2H655.341C655.341 259.931 652.304 249.581 645.327 242.106L636.554 250.294ZM643.341 272.2V284.2H655.341V272.2H643.341ZM649.341 278.2H628.541V290.2H649.341V278.2ZM634.541 284.2V270.8H622.541V284.2H634.541ZM634.541 270.8C634.541 265.524 633.475 260.452 630.316 256.629C626.977 252.586 622.2 251 617.141 251V263C619.682 263 620.604 263.714 621.065 264.271C621.707 265.048 622.541 266.876 622.541 270.8H634.541ZM617.141 251C612.082 251 607.304 252.586 603.965 256.629C600.807 260.452 599.741 265.524 599.741 270.8H611.741C611.741 266.876 612.575 265.048 613.216 264.271C613.677 263.714 614.6 263 617.141 263V251ZM599.741 270.8V347.4H611.741V270.8H599.741ZM599.741 347.4C599.741 352.625 600.814 357.662 603.992 361.454C607.341 365.449 612.111 367 617.141 367V355C614.571 355 613.64 354.284 613.189 353.746C612.568 353.005 611.741 351.241 611.741 347.4H599.741ZM617.141 367C622.171 367 626.94 365.449 630.289 361.454C633.468 357.662 634.541 352.625 634.541 347.4H622.541C622.541 351.241 621.714 353.005 621.092 353.746C620.641 354.284 619.711 355 617.141 355V367ZM634.541 347.4V320H622.541V347.4H634.541ZM628.541 314H617.541V326H628.541V314ZM623.541 320V300H611.541V320H623.541ZM617.541 306H649.341V294H617.541V306ZM643.341 300V345.8H655.341V300H643.341ZM643.341 345.8C643.341 356.188 640.782 363.276 636.51 367.954L645.372 376.046C652.3 368.458 655.341 358.079 655.341 345.8H643.341ZM636.554 367.906C632.404 372.353 626.069 375 616.541 375V387C628.345 387 638.278 383.647 645.327 376.094L636.554 367.906ZM671.066 372L666.635 376.046L666.657 376.07L666.679 376.094L671.066 372ZM662.666 239V233H656.666V239H662.666ZM684.666 239H690.666V233H684.666V239ZM687.466 357.8L682.95 361.751L683.018 361.829L683.088 361.904L687.466 357.8ZM704.066 357.8L699.688 353.696L699.618 353.771L699.55 353.849L704.066 357.8ZM707.066 239V233H701.066V239H707.066ZM728.266 239H734.266V233H728.266V239ZM719.866 372L724.252 376.094L724.274 376.07L724.297 376.046L719.866 372ZM695.466 375C685.937 375 679.603 372.353 675.452 367.906L666.679 376.094C673.729 383.647 683.661 387 695.466 387V375ZM675.497 367.954C671.225 363.276 668.666 356.188 668.666 345.8H656.666C656.666 358.079 659.707 368.458 666.635 376.046L675.497 367.954ZM668.666 345.8V239H656.666V345.8H668.666ZM662.666 245H684.666V233H662.666V245ZM678.666 239V347.4H690.666V239H678.666ZM678.666 347.4C678.666 352.725 679.654 357.984 682.95 361.751L691.981 353.849C691.544 353.349 690.666 351.675 690.666 347.4H678.666ZM683.088 361.904C686.476 365.517 691.018 367 695.866 367V355C693.513 355 692.455 354.349 691.843 353.696L683.088 361.904ZM695.866 367C700.694 367 705.282 365.522 708.581 361.751L699.55 353.849C699.116 354.345 698.237 355 695.866 355V367ZM708.443 361.904C711.98 358.131 713.066 352.802 713.066 347.4H701.066C701.066 351.598 700.152 353.202 699.688 353.696L708.443 361.904ZM713.066 347.4V239H701.066V347.4H713.066ZM707.066 245H728.266V233H707.066V245ZM722.266 239V345.8H734.266V239H722.266ZM722.266 345.8C722.266 356.188 719.707 363.276 715.435 367.954L724.297 376.046C731.225 368.458 734.266 358.079 734.266 345.8H722.266ZM715.479 367.906C711.329 372.353 704.994 375 695.466 375V387C707.27 387 717.203 383.647 724.252 376.094L715.479 367.906ZM748.334 372L743.855 375.992L743.877 376.017L743.899 376.041L748.334 372ZM740.134 337.8V331.8H734.134V337.8H740.134ZM760.934 337.8H766.934V331.8H760.934V337.8ZM780.734 357.8L776.235 353.83L776.227 353.84L776.219 353.849L780.734 357.8ZM779.734 331.6L774.563 334.642L774.583 334.676L774.603 334.71L779.734 331.6ZM764.934 315.4L760.965 319.899L760.98 319.912L760.995 319.926L764.934 315.4ZM745.934 293.8L740.679 296.696L740.692 296.719L740.705 296.742L745.934 293.8ZM748.934 246.2L753.321 250.294L753.343 250.27L753.365 250.246L748.934 246.2ZM797.134 246.2L792.607 250.137L792.652 250.19L792.699 250.241L797.134 246.2ZM805.334 278V284H811.334V278H805.334ZM784.534 278H778.534V284H784.534V278ZM781.734 260.4L777.103 264.214L777.16 264.283L777.219 264.351L781.734 260.4ZM766.534 284.6L761.403 287.71L761.437 287.766L761.472 287.821L766.534 284.6ZM781.534 300.6L777.595 305.126L777.597 305.128L781.534 300.6ZM800.534 322.4L795.234 325.212V325.212L800.534 322.4ZM797.134 371.8L792.751 367.703L792.727 367.728L792.703 367.754L797.134 371.8ZM772.534 375C762.997 375 756.771 372.35 752.77 367.959L743.899 376.041C750.831 383.65 760.738 387 772.534 387V375ZM752.813 368.008C748.644 363.33 746.134 356.222 746.134 345.8H734.134C734.134 358.045 737.091 368.403 743.855 375.992L752.813 368.008ZM746.134 345.8V337.8H734.134V345.8H746.134ZM740.134 343.8H760.934V331.8H740.134V343.8ZM754.934 337.8V347.4H766.934V337.8H754.934ZM754.934 347.4C754.934 352.625 756.007 357.662 759.186 361.454C762.535 365.449 767.304 367 772.334 367V355C769.764 355 768.834 354.284 768.383 353.746C767.761 353.005 766.934 351.241 766.934 347.4H754.934ZM772.334 367C777.216 367 781.91 365.568 785.25 361.751L776.219 353.849C775.826 354.299 774.919 355 772.334 355V367ZM785.233 361.77C788.651 357.896 789.734 352.529 789.734 347H777.734C777.734 351.337 776.818 353.17 776.235 353.83L785.233 361.77ZM789.734 347C789.734 340.194 788.177 333.954 784.866 328.49L774.603 334.71C776.625 338.046 777.734 342.073 777.734 347H789.734ZM784.906 328.558C781.746 323.185 776.232 317.279 768.874 310.874L760.995 319.926C768.037 326.054 772.39 330.948 774.563 334.642L784.906 328.558ZM768.904 310.901C760.06 303.097 754.29 296.416 751.164 290.858L740.705 296.742C744.779 303.984 751.676 311.703 760.965 319.899L768.904 310.901ZM751.189 290.904C748.121 285.337 746.534 279.015 746.534 271.8H734.534C734.534 280.852 736.547 289.197 740.679 296.696L751.189 290.904ZM746.534 271.8C746.534 261.714 749.075 254.843 753.321 250.294L744.548 242.106C737.594 249.557 734.534 259.753 734.534 271.8H746.534ZM753.365 250.246C757.525 245.689 763.845 243 773.334 243V231C761.491 231 751.543 234.444 744.503 242.154L753.365 250.246ZM773.334 243C782.68 243 788.729 245.678 792.607 250.137L801.662 242.263C794.873 234.455 785.056 231 773.334 231V243ZM792.699 250.241C796.82 254.764 799.334 261.768 799.334 272.2H811.334C811.334 259.965 808.382 249.636 801.57 242.159L792.699 250.241ZM799.334 272.2V278H811.334V272.2H799.334ZM805.334 272H784.534V284H805.334V272ZM790.534 278V270.8H778.534V278H790.534ZM790.534 270.8C790.534 265.475 789.546 260.216 786.25 256.449L777.219 264.351C777.656 264.851 778.534 266.525 778.534 270.8H790.534ZM786.366 256.586C783.104 252.625 778.482 251 773.534 251V263C775.786 263 776.631 263.642 777.103 264.214L786.366 256.586ZM773.534 251C768.596 251 763.915 252.561 760.647 256.543C757.564 260.298 756.534 265.265 756.534 270.4H768.534C768.534 266.602 769.338 264.868 769.922 264.157C770.32 263.672 771.139 263 773.534 263V251ZM756.534 270.4C756.534 276.581 758.177 282.387 761.403 287.71L771.666 281.49C769.558 278.013 768.534 274.352 768.534 270.4H756.534ZM761.472 287.821C764.739 292.955 770.257 298.739 777.595 305.126L785.474 296.074C778.412 289.928 773.929 285.045 771.596 281.379L761.472 287.821ZM777.597 305.128C786.555 312.917 792.265 319.616 795.234 325.212L805.834 319.588C801.871 312.117 794.914 304.283 785.471 296.072L777.597 305.128ZM795.234 325.212C798.162 330.729 799.734 337.395 799.734 345.4H811.734C811.734 335.805 809.84 327.137 805.834 319.588L795.234 325.212ZM799.734 345.4C799.734 355.909 797.116 363.034 792.751 367.703L801.518 375.897C808.62 368.3 811.734 357.824 811.734 345.4H799.734ZM792.703 367.754C788.557 372.296 782.184 375 772.534 375V387C784.485 387 794.512 383.571 801.565 375.846L792.703 367.754ZM835.548 259H841.548V253H835.548V259ZM812.548 259H806.548V265H812.548V259ZM812.548 239V233H806.548V239H812.548ZM880.548 239H886.548V233H880.548V239ZM880.548 259V265H886.548V259H880.548ZM857.548 259V253H851.548V259H857.548ZM857.548 379V385H863.548V379H857.548ZM835.548 379H829.548V385H835.548V379ZM835.548 253H812.548V265H835.548V253ZM818.548 259V239H806.548V259H818.548ZM812.548 245H880.548V233H812.548V245ZM874.548 239V259H886.548V239H874.548ZM880.548 253H857.548V265H880.548V253ZM851.548 259V379H863.548V259H851.548ZM857.548 373H835.548V385H857.548V373ZM841.548 379V259H829.548V379H841.548ZM899.02 239V233H893.918L893.098 238.036L899.02 239ZM928.82 239L934.742 238.036L933.922 233H928.82V239ZM951.62 379V385H958.677L957.542 378.036L951.62 379ZM929.62 379L923.681 379.855L924.422 385H929.62V379ZM925.62 351.2L931.559 350.345L919.62 351.2H925.62ZM925.62 351.6V357.6H931.62V351.6H925.62ZM900.62 351.6V345.6H895.433L894.683 350.733L900.62 351.6ZM896.62 379V385H901.808L902.557 379.867L896.62 379ZM876.22 379L870.298 378.036L869.164 385H876.22V379ZM923.02 332.6V338.6H929.93L928.961 331.759L923.02 332.6ZM913.22 263.4L919.161 262.559L918.43 257.4H913.22V263.4ZM912.82 263.4V257.4H907.595L906.877 262.576L912.82 263.4ZM903.22 332.6L897.277 331.776L896.331 338.6H903.22V332.6ZM899.02 245H928.82V233H899.02V245ZM922.898 239.964L945.698 379.964L957.542 378.036L934.742 238.036L922.898 239.964ZM951.62 373H929.62V385H951.62V373ZM935.559 378.145L931.559 350.345L919.681 352.055L923.681 379.855L935.559 378.145ZM919.62 351.2V351.6H931.62V351.2H919.62ZM925.62 345.6H900.62V357.6H925.62V345.6ZM894.683 350.733L890.683 378.133L902.557 379.867L906.557 352.467L894.683 350.733ZM896.62 373H876.22V385H896.62V373ZM882.142 379.964L904.942 239.964L893.098 238.036L870.298 378.036L882.142 379.964ZM928.961 331.759L919.161 262.559L907.28 264.241L917.08 333.441L928.961 331.759ZM913.22 257.4H912.82V269.4H913.22V257.4ZM906.877 262.576L897.277 331.776L909.163 333.424L918.763 264.224L906.877 262.576ZM903.22 338.6H923.02V326.6H903.22V338.6ZM950.83 239V233H943.853L944.897 239.898L950.83 239ZM973.03 239L978.978 238.211L978.287 233H973.03V239ZM987.43 347.6L981.482 348.389L982.173 353.6H987.43V347.6ZM987.83 347.6V353.6H993.087L993.778 348.389L987.83 347.6ZM1002.23 239V233H996.973L996.282 238.211L1002.23 239ZM1022.43 239L1028.36 239.898L1029.41 233H1022.43V239ZM1001.23 379V385H1006.39L1007.16 379.898L1001.23 379ZM972.03 379L966.097 379.898L966.87 385H972.03V379ZM950.83 245H973.03V233H950.83V245ZM967.082 239.789L981.482 348.389L993.378 346.811L978.978 238.211L967.082 239.789ZM987.43 353.6H987.83V341.6H987.43V353.6ZM993.778 348.389L1008.18 239.789L996.282 238.211L981.882 346.811L993.778 348.389ZM1002.23 245H1022.43V233H1002.23V245ZM1016.5 238.102L995.297 378.102L1007.16 379.898L1028.36 239.898L1016.5 238.102ZM1001.23 373H972.03V385H1001.23V373ZM977.962 378.102L956.762 238.102L944.897 239.898L966.097 379.898L977.962 378.102ZM1039.61 371.8L1043.99 367.703L1039.61 371.8ZM1039.61 246.2L1043.99 250.297L1039.61 246.2ZM1089.21 246.2L1084.82 250.297V250.297L1089.21 246.2ZM1089.21 371.8L1084.82 367.703L1089.21 371.8ZM1064.41 375C1054.76 375 1048.29 372.298 1043.99 367.703L1035.22 375.897C1042.39 383.569 1052.45 387 1064.41 387V375ZM1043.99 367.703C1039.6 363.01 1037.01 355.998 1037.01 345.8H1025.01C1025.01 358.002 1028.14 368.324 1035.22 375.897L1043.99 367.703ZM1037.01 345.8V272.2H1025.01V345.8H1037.01ZM1037.01 272.2C1037.01 262.002 1039.6 254.99 1043.99 250.297L1035.22 242.103C1028.14 249.676 1025.01 259.998 1025.01 272.2H1037.01ZM1043.99 250.297C1048.29 245.702 1054.76 243 1064.41 243V231C1052.45 231 1042.39 234.431 1035.22 242.103L1043.99 250.297ZM1064.41 243C1074.05 243 1080.53 245.702 1084.82 250.297L1093.59 242.103C1086.42 234.431 1076.36 231 1064.41 231V243ZM1084.82 250.297C1089.21 254.99 1091.81 262.002 1091.81 272.2H1103.81C1103.81 259.998 1100.67 249.676 1093.59 242.103L1084.82 250.297ZM1091.81 272.2V345.8H1103.81V272.2H1091.81ZM1091.81 345.8C1091.81 355.998 1089.21 363.01 1084.82 367.703L1093.59 375.897C1100.67 368.324 1103.81 358.002 1103.81 345.8H1091.81ZM1084.82 367.703C1080.53 372.298 1074.05 375 1064.41 375V387C1076.36 387 1086.42 383.569 1093.59 375.897L1084.82 367.703ZM1064.41 367C1069.47 367 1074.24 365.414 1077.58 361.371C1080.74 357.548 1081.81 352.476 1081.81 347.2H1069.81C1069.81 351.124 1068.97 352.952 1068.33 353.729C1067.87 354.286 1066.95 355 1064.41 355V367ZM1081.81 347.2V270.8H1069.81V347.2H1081.81ZM1081.81 270.8C1081.81 265.524 1080.74 260.452 1077.58 256.629C1074.24 252.586 1069.47 251 1064.41 251V263C1066.95 263 1067.87 263.714 1068.33 264.271C1068.97 265.048 1069.81 266.876 1069.81 270.8H1081.81ZM1064.41 251C1059.35 251 1054.57 252.586 1051.23 256.629C1048.07 260.452 1047.01 265.524 1047.01 270.8H1059.01C1059.01 266.876 1059.84 265.048 1060.48 264.271C1060.94 263.714 1061.87 263 1064.41 263V251ZM1047.01 270.8V347.2H1059.01V270.8H1047.01ZM1047.01 347.2C1047.01 352.476 1048.07 357.548 1051.23 361.371C1054.57 365.414 1059.35 367 1064.41 367V355C1061.87 355 1060.94 354.286 1060.48 353.729C1059.84 352.952 1059.01 351.124 1059.01 347.2H1047.01ZM1119.48 372L1115.05 376.046L1115.08 376.07L1115.1 376.094L1119.48 372ZM1119.48 246.2L1123.87 250.294L1123.89 250.27L1123.92 250.246L1119.48 246.2ZM1168.28 246.2L1163.85 250.246L1163.88 250.27L1163.9 250.294L1168.28 246.2ZM1176.68 284.2V290.2H1182.68V284.2H1176.68ZM1155.88 284.2H1149.88V290.2H1155.88V284.2ZM1155.88 320H1161.88V314H1155.88V320ZM1144.88 320H1138.88V326H1144.88V320ZM1144.88 300V294H1138.88V300H1144.88ZM1176.68 300H1182.68V294H1176.68V300ZM1168.28 372L1172.67 376.094L1172.69 376.07L1172.72 376.046L1168.28 372ZM1143.88 375C1134.36 375 1128.02 372.353 1123.87 367.906L1115.1 376.094C1122.15 383.647 1132.08 387 1143.88 387V375ZM1123.92 367.954C1119.64 363.276 1117.08 356.188 1117.08 345.8H1105.08C1105.08 358.079 1108.13 368.458 1115.05 376.046L1123.92 367.954ZM1117.08 345.8V272.2H1105.08V345.8H1117.08ZM1117.08 272.2C1117.08 261.802 1119.65 254.819 1123.87 250.294L1115.1 242.106C1108.12 249.581 1105.08 259.931 1105.08 272.2H1117.08ZM1123.92 250.246C1128.08 245.689 1134.39 243 1143.88 243V231C1132.04 231 1122.09 234.444 1115.05 242.154L1123.92 250.246ZM1143.88 243C1153.37 243 1159.69 245.689 1163.85 250.246L1172.72 242.154C1165.68 234.444 1155.73 231 1143.88 231V243ZM1163.9 250.294C1168.12 254.819 1170.68 261.802 1170.68 272.2H1182.68C1182.68 259.931 1179.65 249.581 1172.67 242.106L1163.9 250.294ZM1170.68 272.2V284.2H1182.68V272.2H1170.68ZM1176.68 278.2H1155.88V290.2H1176.68V278.2ZM1161.88 284.2V270.8H1149.88V284.2H1161.88ZM1161.88 270.8C1161.88 265.524 1160.82 260.452 1157.66 256.629C1154.32 252.586 1149.54 251 1144.48 251V263C1147.03 263 1147.95 263.714 1148.41 264.271C1149.05 265.048 1149.88 266.876 1149.88 270.8H1161.88ZM1144.48 251C1139.43 251 1134.65 252.586 1131.31 256.629C1128.15 260.452 1127.08 265.524 1127.08 270.8H1139.08C1139.08 266.876 1139.92 265.048 1140.56 264.271C1141.02 263.714 1141.94 263 1144.48 263V251ZM1127.08 270.8V347.4H1139.08V270.8H1127.08ZM1127.08 347.4C1127.08 352.625 1128.16 357.662 1131.34 361.454C1134.68 365.449 1139.45 367 1144.48 367V355C1141.91 355 1140.98 354.284 1140.53 353.746C1139.91 353.005 1139.08 351.241 1139.08 347.4H1127.08ZM1144.48 367C1149.51 367 1154.28 365.449 1157.63 361.454C1160.81 357.662 1161.88 352.625 1161.88 347.4H1149.88C1149.88 351.241 1149.06 353.005 1148.44 353.746C1147.98 354.284 1147.05 355 1144.48 355V367ZM1161.88 347.4V320H1149.88V347.4H1161.88ZM1155.88 314H1144.88V326H1155.88V314ZM1150.88 320V300H1138.88V320H1150.88ZM1144.88 306H1176.68V294H1144.88V306ZM1170.68 300V345.8H1182.68V300H1170.68ZM1170.68 345.8C1170.68 356.188 1168.13 363.276 1163.85 367.954L1172.72 376.046C1179.64 368.458 1182.68 358.079 1182.68 345.8H1170.68ZM1163.9 367.906C1159.75 372.353 1153.41 375 1143.88 375V387C1155.69 387 1165.62 383.647 1172.67 376.094L1163.9 367.906ZM1207.81 239V233H1202.71L1201.89 238.036L1207.81 239ZM1237.61 239L1243.53 238.036L1242.71 233H1237.61V239ZM1260.41 379V385H1267.47L1266.33 378.036L1260.41 379ZM1238.41 379L1232.47 379.855L1233.21 385H1238.41V379ZM1234.41 351.2L1240.35 350.345L1228.41 351.2H1234.41ZM1234.41 351.6V357.6H1240.41V351.6H1234.41ZM1209.41 351.6V345.6H1204.22L1203.47 350.733L1209.41 351.6ZM1205.41 379V385H1210.6L1211.35 379.867L1205.41 379ZM1185.01 379L1179.09 378.036L1177.95 385H1185.01V379ZM1231.81 332.6V338.6H1238.72L1237.75 331.759L1231.81 332.6ZM1222.01 263.4L1227.95 262.559L1227.22 257.4H1222.01V263.4ZM1221.61 263.4V257.4H1216.38L1215.67 262.576L1221.61 263.4ZM1212.01 332.6L1206.07 331.776L1205.12 338.6H1212.01V332.6ZM1207.81 245H1237.61V233H1207.81V245ZM1231.69 239.964L1254.49 379.964L1266.33 378.036L1243.53 238.036L1231.69 239.964ZM1260.41 373H1238.41V385H1260.41V373ZM1244.35 378.145L1240.35 350.345L1228.47 352.055L1232.47 379.855L1244.35 378.145ZM1228.41 351.2V351.6H1240.41V351.2H1228.41ZM1234.41 345.6H1209.41V357.6H1234.41V345.6ZM1203.47 350.733L1199.47 378.133L1211.35 379.867L1215.35 352.467L1203.47 350.733ZM1205.41 373H1185.01V385H1205.41V373ZM1190.93 379.964L1213.73 239.964L1201.89 238.036L1179.09 378.036L1190.93 379.964ZM1237.75 331.759L1227.95 262.559L1216.07 264.241L1225.87 333.441L1237.75 331.759ZM1222.01 257.4H1221.61V269.4H1222.01V257.4ZM1215.67 262.576L1206.07 331.776L1217.95 333.424L1227.55 264.224L1215.67 262.576ZM1212.01 338.6H1231.81V326.6H1212.01V338.6ZM1271.08 239V233H1265.08V239H1271.08ZM1298.68 239L1304.5 237.515L1303.34 233H1298.68V239ZM1320.08 322.8L1314.27 324.285L1315.42 328.8H1320.08V322.8ZM1320.48 322.8V328.8H1326.48V322.8H1320.48ZM1320.48 239V233H1314.48V239H1320.48ZM1340.08 239H1346.08V233H1340.08V239ZM1340.08 379V385H1346.08V379H1340.08ZM1317.48 379L1311.67 380.501L1312.84 385H1317.48V379ZM1291.08 276.8L1296.89 275.299L1295.73 270.8H1291.08V276.8ZM1290.68 276.8V270.8H1284.68V276.8H1290.68ZM1290.68 379V385H1296.68V379H1290.68ZM1271.08 379H1265.08V385H1271.08V379ZM1271.08 245H1298.68V233H1271.08V245ZM1292.87 240.485L1314.27 324.285L1325.9 321.315L1304.5 237.515L1292.87 240.485ZM1320.08 328.8H1320.48V316.8H1320.08V328.8ZM1326.48 322.8V239H1314.48V322.8H1326.48ZM1320.48 245H1340.08V233H1320.48V245ZM1334.08 239V379H1346.08V239H1334.08ZM1340.08 373H1317.48V385H1340.08V373ZM1323.29 377.499L1296.89 275.299L1285.27 278.301L1311.67 380.501L1323.29 377.499ZM1291.08 270.8H1290.68V282.8H1291.08V270.8ZM1284.68 276.8V379H1296.68V276.8H1284.68ZM1290.68 373H1271.08V385H1290.68V373ZM1277.08 379V239H1265.08V379H1277.08ZM1373.63 259H1379.63V253H1373.63V259ZM1350.63 259H1344.63V265H1350.63V259ZM1350.63 239V233H1344.63V239H1350.63ZM1418.63 239H1424.63V233H1418.63V239ZM1418.63 259V265H1424.63V259H1418.63ZM1395.63 259V253H1389.63V259H1395.63ZM1395.63 379V385H1401.63V379H1395.63ZM1373.63 379H1367.63V385H1373.63V379ZM1373.63 253H1350.63V265H1373.63V253ZM1356.63 259V239H1344.63V259H1356.63ZM1350.63 245H1418.63V233H1350.63V245ZM1412.63 239V259H1424.63V239H1412.63ZM1418.63 253H1395.63V265H1418.63V253ZM1389.63 259V379H1401.63V259H1389.63ZM1395.63 373H1373.63V385H1395.63V373ZM1379.63 379V259H1367.63V379H1379.63ZM1435.5 371.8L1439.89 367.703L1435.5 371.8ZM1435.5 246.2L1439.89 250.297L1435.5 246.2ZM1485.1 246.2L1480.72 250.297V250.297L1485.1 246.2ZM1485.1 371.8L1480.72 367.703L1485.1 371.8ZM1460.3 375C1450.66 375 1444.18 372.298 1439.89 367.703L1431.12 375.897C1438.29 383.569 1448.35 387 1460.3 387V375ZM1439.89 367.703C1435.5 363.01 1432.9 355.998 1432.9 345.8H1420.9C1420.9 358.002 1424.04 368.324 1431.12 375.897L1439.89 367.703ZM1432.9 345.8V272.2H1420.9V345.8H1432.9ZM1432.9 272.2C1432.9 262.002 1435.5 254.99 1439.89 250.297L1431.12 242.103C1424.04 249.676 1420.9 259.998 1420.9 272.2H1432.9ZM1439.89 250.297C1444.18 245.702 1450.66 243 1460.3 243V231C1448.35 231 1438.29 234.431 1431.12 242.103L1439.89 250.297ZM1460.3 243C1469.95 243 1476.43 245.702 1480.72 250.297L1489.49 242.103C1482.32 234.431 1472.26 231 1460.3 231V243ZM1480.72 250.297C1485.11 254.99 1487.7 262.002 1487.7 272.2H1499.7C1499.7 259.998 1496.57 249.676 1489.49 242.103L1480.72 250.297ZM1487.7 272.2V345.8H1499.7V272.2H1487.7ZM1487.7 345.8C1487.7 355.998 1485.11 363.01 1480.72 367.703L1489.49 375.897C1496.57 368.324 1499.7 358.002 1499.7 345.8H1487.7ZM1480.72 367.703C1476.43 372.298 1469.95 375 1460.3 375V387C1472.26 387 1482.32 383.569 1489.49 375.897L1480.72 367.703ZM1460.3 367C1465.36 367 1470.14 365.414 1473.48 361.371C1476.64 357.548 1477.7 352.476 1477.7 347.2H1465.7C1465.7 351.124 1464.87 352.952 1464.23 353.729C1463.77 354.286 1462.85 355 1460.3 355V367ZM1477.7 347.2V270.8H1465.7V347.2H1477.7ZM1477.7 270.8C1477.7 265.524 1476.64 260.452 1473.48 256.629C1470.14 252.586 1465.36 251 1460.3 251V263C1462.85 263 1463.77 263.714 1464.23 264.271C1464.87 265.048 1465.7 266.876 1465.7 270.8H1477.7ZM1460.3 251C1455.25 251 1450.47 252.586 1447.13 256.629C1443.97 260.452 1442.9 265.524 1442.9 270.8H1454.9C1454.9 266.876 1455.74 265.048 1456.38 264.271C1456.84 263.714 1457.76 263 1460.3 263V251ZM1442.9 270.8V347.2H1454.9V270.8H1442.9ZM1442.9 347.2C1442.9 352.476 1443.97 357.548 1447.13 361.371C1450.47 365.414 1455.25 367 1460.3 367V355C1457.76 355 1456.84 354.286 1456.38 353.729C1455.74 352.952 1454.9 351.124 1454.9 347.2H1442.9ZM1508.58 239V233H1502.58V239H1508.58ZM1530.58 239H1536.58V233H1530.58V239ZM1530.58 379V385H1536.58V379H1530.58ZM1508.58 379H1502.58V385H1508.58V379ZM1508.58 245H1530.58V233H1508.58V245ZM1524.58 239V379H1536.58V239H1524.58ZM1530.58 373H1508.58V385H1530.58V373ZM1514.58 379V239H1502.58V379H1514.58ZM1551.46 372L1546.98 375.992L1547 376.017L1547.02 376.041L1551.46 372ZM1543.26 337.8V331.8H1537.26V337.8H1543.26ZM1564.06 337.8H1570.06V331.8H1564.06V337.8ZM1583.86 357.8L1579.36 353.83L1579.35 353.84L1579.34 353.849L1583.86 357.8ZM1582.86 331.6L1577.69 334.642L1577.71 334.676L1577.73 334.71L1582.86 331.6ZM1568.06 315.4L1564.09 319.899L1564.1 319.912L1564.12 319.926L1568.06 315.4ZM1549.06 293.8L1543.8 296.696L1543.82 296.719L1543.83 296.742L1549.06 293.8ZM1552.06 246.2L1556.45 250.294L1556.47 250.27L1556.49 250.246L1552.06 246.2ZM1600.26 246.2L1595.73 250.137L1595.78 250.19L1595.82 250.241L1600.26 246.2ZM1608.46 278V284H1614.46V278H1608.46ZM1587.66 278H1581.66V284H1587.66V278ZM1584.86 260.4L1580.23 264.214L1580.28 264.283L1580.34 264.351L1584.86 260.4ZM1569.66 284.6L1564.53 287.71L1564.56 287.766L1564.6 287.821L1569.66 284.6ZM1584.66 300.6L1580.72 305.126L1580.72 305.128L1584.66 300.6ZM1603.66 322.4L1598.36 325.212V325.212L1603.66 322.4ZM1600.26 371.8L1595.88 367.703L1595.85 367.728L1595.83 367.754L1600.26 371.8ZM1575.66 375C1566.12 375 1559.9 372.35 1555.89 367.959L1547.02 376.041C1553.96 383.65 1563.86 387 1575.66 387V375ZM1555.94 368.008C1551.77 363.33 1549.26 356.222 1549.26 345.8H1537.26C1537.26 358.045 1540.22 368.403 1546.98 375.992L1555.94 368.008ZM1549.26 345.8V337.8H1537.26V345.8H1549.26ZM1543.26 343.8H1564.06V331.8H1543.26V343.8ZM1558.06 337.8V347.4H1570.06V337.8H1558.06ZM1558.06 347.4C1558.06 352.625 1559.13 357.662 1562.31 361.454C1565.66 365.449 1570.43 367 1575.46 367V355C1572.89 355 1571.96 354.284 1571.51 353.746C1570.89 353.005 1570.06 351.241 1570.06 347.4H1558.06ZM1575.46 367C1580.34 367 1585.03 365.568 1588.37 361.751L1579.34 353.849C1578.95 354.299 1578.04 355 1575.46 355V367ZM1588.36 361.77C1591.78 357.896 1592.86 352.529 1592.86 347H1580.86C1580.86 351.337 1579.94 353.17 1579.36 353.83L1588.36 361.77ZM1592.86 347C1592.86 340.194 1591.3 333.954 1587.99 328.49L1577.73 334.71C1579.75 338.046 1580.86 342.073 1580.86 347H1592.86ZM1588.03 328.558C1584.87 323.185 1579.36 317.279 1572 310.874L1564.12 319.926C1571.16 326.054 1575.51 330.948 1577.69 334.642L1588.03 328.558ZM1572.03 310.901C1563.18 303.097 1557.41 296.416 1554.29 290.858L1543.83 296.742C1547.9 303.984 1554.8 311.703 1564.09 319.899L1572.03 310.901ZM1554.31 290.904C1551.25 285.337 1549.66 279.015 1549.66 271.8H1537.66C1537.66 280.852 1539.67 289.197 1543.8 296.696L1554.31 290.904ZM1549.66 271.8C1549.66 261.714 1552.2 254.843 1556.45 250.294L1547.67 242.106C1540.72 249.557 1537.66 259.753 1537.66 271.8H1549.66ZM1556.49 250.246C1560.65 245.689 1566.97 243 1576.46 243V231C1564.62 231 1554.67 234.444 1547.63 242.154L1556.49 250.246ZM1576.46 243C1585.8 243 1591.85 245.678 1595.73 250.137L1604.79 242.263C1598 234.455 1588.18 231 1576.46 231V243ZM1595.82 250.241C1599.95 254.764 1602.46 261.768 1602.46 272.2H1614.46C1614.46 259.965 1611.51 249.636 1604.69 242.159L1595.82 250.241ZM1602.46 272.2V278H1614.46V272.2H1602.46ZM1608.46 272H1587.66V284H1608.46V272ZM1593.66 278V270.8H1581.66V278H1593.66ZM1593.66 270.8C1593.66 265.475 1592.67 260.216 1589.37 256.449L1580.34 264.351C1580.78 264.851 1581.66 266.525 1581.66 270.8H1593.66ZM1589.49 256.586C1586.23 252.625 1581.61 251 1576.66 251V263C1578.91 263 1579.76 263.642 1580.23 264.214L1589.49 256.586ZM1576.66 251C1571.72 251 1567.04 252.561 1563.77 256.543C1560.69 260.298 1559.66 265.265 1559.66 270.4H1571.66C1571.66 266.602 1572.46 264.868 1573.05 264.157C1573.44 263.672 1574.26 263 1576.66 263V251ZM1559.66 270.4C1559.66 276.581 1561.3 282.387 1564.53 287.71L1574.79 281.49C1572.68 278.013 1571.66 274.352 1571.66 270.4H1559.66ZM1564.6 287.821C1567.86 292.955 1573.38 298.739 1580.72 305.126L1588.6 296.074C1581.54 289.928 1577.05 285.045 1574.72 281.379L1564.6 287.821ZM1580.72 305.128C1589.68 312.917 1595.39 319.616 1598.36 325.212L1608.96 319.588C1605 312.117 1598.04 304.283 1588.6 296.072L1580.72 305.128ZM1598.36 325.212C1601.29 330.729 1602.86 337.395 1602.86 345.4H1614.86C1614.86 335.805 1612.97 327.137 1608.96 319.588L1598.36 325.212ZM1602.86 345.4C1602.86 355.909 1600.24 363.034 1595.88 367.703L1604.64 375.897C1611.74 368.3 1614.86 357.824 1614.86 345.4H1602.86ZM1595.83 367.754C1591.68 372.296 1585.31 375 1575.66 375V387C1587.61 387 1597.64 383.571 1604.69 375.846L1595.83 367.754ZM1613.27 381V375H1607.27V381H1613.27ZM1673.27 381H1679.27V375H1673.27V381ZM1673.27 397V403H1679.27V397H1673.27ZM1613.27 397H1607.27V403H1613.27V397ZM1613.27 387H1673.27V375H1613.27V387ZM1667.27 381V397H1679.27V381H1667.27ZM1673.27 391H1613.27V403H1673.27V391ZM1619.27 397V381H1607.27V397H1619.27Z" fill="white" mask="url(#path-1-outside-1_901_199)"/>
</g>
<defs>
<filter id="filter0_d_901_199" x="-37" y="0" width="1960.27" height="666" filterUnits="userSpaceOnUse" color-interpolation-filters="sRGB">
<feFlood flood-opacity="0" result="BackgroundImageFix"/>
<feColorMatrix in="SourceAlpha" type="matrix" values="0 0 0 0 0 0 0 0 0 0 0 0 0 0 0 0 0 0 127 0" result="hardAlpha"/>
<feOffset dy="19"/>
<feGaussianBlur stdDeviation="125"/>
<feComposite in2="hardAlpha" operator="out"/>
<feColorMatrix type="matrix" values="0 0 0 0 1 0 0 0 0 1 0 0 0 0 1 0 0 0 0.25 0"/>
<feBlend mode="normal" in2="BackgroundImageFix" result="effect1_dropShadow_901_199"/>
<feBlend mode="normal" in="SourceGraphic" in2="effect1_dropShadow_901_199" result="shape"/>
</filter>
</defs>
</svg>
