<svg width="1735" height="677" viewBox="0 0 1735 677" fill="none" xmlns="http://www.w3.org/2000/svg">
<g filter="url(#filter0_d_927_120)">
<mask id="path-1-outside-1_927_120" maskUnits="userSpaceOnUse" x="9" y="34" width="1712" height="183" fill="black">
<rect fill="white" x="9" y="34" width="1712" height="183"/>
<path d="M10.25 38H83V63H37.75V111.75H73.25V136.75H37.75V213H10.25V38ZM96.1875 38H136.938C151.104 38 161.438 41.3333 167.938 48C174.438 54.5 177.688 64.5833 177.688 78.25V89C177.688 107.167 171.688 118.667 159.688 123.5V124C166.354 126 171.021 130.083 173.688 136.25C176.521 142.417 177.938 150.667 177.938 161V191.75C177.938 196.75 178.104 200.833 178.438 204C178.771 207 179.604 210 180.938 213H152.938C151.938 210.167 151.271 207.5 150.938 205C150.604 202.5 150.438 198 150.438 191.5V159.5C150.438 151.5 149.104 145.917 146.438 142.75C143.938 139.583 139.521 138 133.188 138H123.688V213H96.1875V38ZM133.688 113C139.188 113 143.271 111.583 145.938 108.75C148.771 105.917 150.187 101.167 150.187 94.5V81C150.187 74.6667 149.021 70.0833 146.688 67.25C144.521 64.4167 141.021 63 136.188 63H123.688V113H133.688ZM236.768 215.5C223.268 215.5 212.934 211.667 205.768 204C198.601 196.333 195.018 185.5 195.018 171.5V79.5C195.018 65.5 198.601 54.6667 205.768 47C212.934 39.3333 223.268 35.5 236.768 35.5C250.268 35.5 260.601 39.3333 267.768 47C274.934 54.6667 278.518 65.5 278.518 79.5V171.5C278.518 185.5 274.934 196.333 267.768 204C260.601 211.667 250.268 215.5 236.768 215.5ZM236.768 190.5C246.268 190.5 251.018 184.75 251.018 173.25V77.75C251.018 66.25 246.268 60.5 236.768 60.5C227.268 60.5 222.518 66.25 222.518 77.75V173.25C222.518 184.75 227.268 190.5 236.768 190.5ZM297.115 38H331.615L358.365 142.75H358.865V38H383.365V213H355.115L322.115 85.25H321.615V213H297.115V38ZM425.305 63H396.555V38H481.555V63H452.805V213H425.305V63ZM472.559 113H527.559V138H472.559V113ZM543.941 38H618.941V63H571.441V109.25H609.191V134.25H571.441V188H618.941V213H543.941V38ZM634.762 38H669.262L696.012 142.75H696.512V38H721.012V213H692.762L659.762 85.25H659.262V213H634.762V38ZM741.451 38H783.451C797.118 38 807.368 41.6667 814.201 49C821.035 56.3333 824.451 67.0833 824.451 81.25V169.75C824.451 183.917 821.035 194.667 814.201 202C807.368 209.333 797.118 213 783.451 213H741.451V38ZM782.951 188C787.451 188 790.868 186.667 793.201 184C795.701 181.333 796.951 177 796.951 171V80C796.951 74 795.701 69.6667 793.201 67C790.868 64.3333 787.451 63 782.951 63H768.951V188H782.951ZM883.053 38H925.053C938.719 38 948.969 41.6667 955.803 49C962.636 56.3333 966.053 67.0833 966.053 81.25V169.75C966.053 183.917 962.636 194.667 955.803 202C948.969 209.333 938.719 213 925.053 213H883.053V38ZM924.553 188C929.053 188 932.469 186.667 934.803 184C937.303 181.333 938.553 177 938.553 171V80C938.553 74 937.303 69.6667 934.803 67C932.469 64.3333 929.053 63 924.553 63H910.553V188H924.553ZM984.615 38H1059.62V63H1012.12V109.25H1049.87V134.25H1012.12V188H1059.62V213H984.615V38ZM1068.19 38H1095.94L1113.94 173.75H1114.44L1132.44 38H1157.69L1131.19 213H1094.69L1068.19 38ZM1170.89 38H1245.89V63H1198.39V109.25H1236.14V134.25H1198.39V188H1245.89V213H1170.89V38ZM1261.71 38H1289.21V188H1334.46V213H1261.71V38ZM1386.43 215.5C1372.93 215.5 1362.59 211.667 1355.43 204C1348.26 196.333 1344.68 185.5 1344.68 171.5V79.5C1344.68 65.5 1348.26 54.6667 1355.43 47C1362.59 39.3333 1372.93 35.5 1386.43 35.5C1399.93 35.5 1410.26 39.3333 1417.43 47C1424.59 54.6667 1428.18 65.5 1428.18 79.5V171.5C1428.18 185.5 1424.59 196.333 1417.43 204C1410.26 211.667 1399.93 215.5 1386.43 215.5ZM1386.43 190.5C1395.93 190.5 1400.68 184.75 1400.68 173.25V77.75C1400.68 66.25 1395.93 60.5 1386.43 60.5C1376.93 60.5 1372.18 66.25 1372.18 77.75V173.25C1372.18 184.75 1376.93 190.5 1386.43 190.5ZM1446.77 38H1487.27C1500.94 38 1511.19 41.6667 1518.02 49C1524.86 56.3333 1528.27 67.0833 1528.27 81.25V98.5C1528.27 112.667 1524.86 123.417 1518.02 130.75C1511.19 138.083 1500.94 141.75 1487.27 141.75H1474.27V213H1446.77V38ZM1487.27 116.75C1491.77 116.75 1495.11 115.5 1497.27 113C1499.61 110.5 1500.77 106.25 1500.77 100.25V79.5C1500.77 73.5 1499.61 69.25 1497.27 66.75C1495.11 64.25 1491.77 63 1487.27 63H1474.27V116.75H1487.27ZM1543.21 38H1618.21V63H1570.71V109.25H1608.46V134.25H1570.71V188H1618.21V213H1543.21V38ZM1634.03 38H1674.78C1688.95 38 1699.28 41.3333 1705.78 48C1712.28 54.5 1715.53 64.5833 1715.53 78.25V89C1715.53 107.167 1709.53 118.667 1697.53 123.5V124C1704.2 126 1708.86 130.083 1711.53 136.25C1714.36 142.417 1715.78 150.667 1715.78 161V191.75C1715.78 196.75 1715.95 200.833 1716.28 204C1716.61 207 1717.45 210 1718.78 213H1690.78C1689.78 210.167 1689.11 207.5 1688.78 205C1688.45 202.5 1688.28 198 1688.28 191.5V159.5C1688.28 151.5 1686.95 145.917 1684.28 142.75C1681.78 139.583 1677.36 138 1671.03 138H1661.53V213H1634.03V38ZM1671.53 113C1677.03 113 1681.11 111.583 1683.78 108.75C1686.61 105.917 1688.03 101.167 1688.03 94.5V81C1688.03 74.6667 1686.86 70.0833 1684.53 67.25C1682.36 64.4167 1678.86 63 1674.03 63H1661.53V113H1671.53Z"/>
</mask>
<path d="M10.25 38V37H9.25V38H10.25ZM83 38H84V37H83V38ZM83 63V64H84V63H83ZM37.75 63V62H36.75V63H37.75ZM37.75 111.75H36.75V112.75H37.75V111.75ZM73.25 111.75H74.25V110.75H73.25V111.75ZM73.25 136.75V137.75H74.25V136.75H73.25ZM37.75 136.75V135.75H36.75V136.75H37.75ZM37.75 213V214H38.75V213H37.75ZM10.25 213H9.25V214H10.25V213ZM10.25 39H83V37H10.25V39ZM82 38V63H84V38H82ZM83 62H37.75V64H83V62ZM36.75 63V111.75H38.75V63H36.75ZM37.75 112.75H73.25V110.75H37.75V112.75ZM72.25 111.75V136.75H74.25V111.75H72.25ZM73.25 135.75H37.75V137.75H73.25V135.75ZM36.75 136.75V213H38.75V136.75H36.75ZM37.75 212H10.25V214H37.75V212ZM11.25 213V38H9.25V213H11.25ZM96.1875 38V37H95.1875V38H96.1875ZM167.938 48L167.221 48.6982L167.23 48.7071L167.938 48ZM159.688 123.5L159.314 122.572L158.688 122.825V123.5H159.688ZM159.688 124H158.688V124.744L159.4 124.958L159.688 124ZM173.688 136.25L172.77 136.647L172.774 136.657L172.779 136.667L173.688 136.25ZM178.438 204L177.443 204.105L177.444 204.11L178.438 204ZM180.938 213V214H182.476L181.851 212.594L180.938 213ZM152.938 213L151.995 213.333L152.23 214H152.938V213ZM146.438 142.75L145.653 143.37L145.662 143.382L145.673 143.394L146.438 142.75ZM123.688 138V137H122.688V138H123.688ZM123.688 213V214H124.688V213H123.688ZM96.1875 213H95.1875V214H96.1875V213ZM145.938 108.75L145.23 108.043L145.22 108.054L145.209 108.065L145.938 108.75ZM146.688 67.25L145.893 67.8575L145.904 67.8718L145.916 67.8857L146.688 67.25ZM123.688 63V62H122.688V63H123.688ZM123.688 113H122.688V114H123.688V113ZM96.1875 39H136.938V37H96.1875V39ZM136.938 39C150.973 39 160.988 42.3052 167.221 48.6981L168.654 47.3019C161.887 40.3615 151.235 37 136.938 37V39ZM167.23 48.7071C173.468 54.9452 176.688 64.7205 176.688 78.25H178.688C178.688 64.4461 175.407 54.0548 168.645 47.2929L167.23 48.7071ZM176.688 78.25V89H178.688V78.25H176.688ZM176.688 89C176.688 97.9831 175.203 105.226 172.301 110.787C169.411 116.327 165.092 120.245 159.314 122.572L160.061 124.428C166.283 121.922 170.964 117.673 174.074 111.713C177.172 105.774 178.688 98.1836 178.688 89H176.688ZM158.688 123.5V124H160.688V123.5H158.688ZM159.4 124.958C165.796 126.877 170.225 130.762 172.77 136.647L174.605 135.853C171.817 129.405 166.912 125.123 159.975 123.042L159.4 124.958ZM172.779 136.667C175.529 142.653 176.938 150.743 176.938 161H178.938C178.938 150.591 177.513 142.18 174.596 135.832L172.779 136.667ZM176.938 161V191.75H178.938V161H176.938ZM176.938 191.75C176.938 196.768 177.105 200.889 177.443 204.105L179.432 203.895C179.104 200.777 178.938 196.732 178.938 191.75H176.938ZM177.444 204.11C177.789 207.221 178.652 210.32 180.024 213.406L181.851 212.594C180.556 209.68 179.752 206.779 179.431 203.89L177.444 204.11ZM180.938 212H152.938V214H180.938V212ZM153.88 212.667C152.899 209.887 152.251 207.288 151.929 204.868L149.946 205.132C150.29 207.712 150.976 210.446 151.995 213.333L153.88 212.667ZM151.929 204.868C151.605 202.442 151.438 198.004 151.438 191.5H149.438C149.438 197.996 149.603 202.558 149.946 205.132L151.929 204.868ZM151.438 191.5V159.5H149.438V191.5H151.438ZM151.438 159.5C151.438 151.454 150.11 145.558 147.202 142.106L145.673 143.394C148.099 146.275 149.438 151.546 149.438 159.5H151.438ZM147.222 142.13C144.446 138.613 139.651 137 133.188 137V139C139.391 139 143.43 140.554 145.653 143.37L147.222 142.13ZM133.188 137H123.688V139H133.188V137ZM122.688 138V213H124.688V138H122.688ZM123.688 212H96.1875V214H123.688V212ZM97.1875 213V38H95.1875V213H97.1875ZM133.688 114C139.347 114 143.743 112.541 146.666 109.435L145.209 108.065C142.799 110.626 139.028 112 133.688 112V114ZM146.645 109.457C149.757 106.344 151.188 101.265 151.188 94.5H149.188C149.188 101.068 147.784 105.489 145.23 108.043L146.645 109.457ZM151.188 94.5V81H149.188V94.5H151.188ZM151.188 81C151.188 74.5873 150.014 69.7168 147.459 66.6143L145.916 67.8857C148.027 70.4498 149.188 74.746 149.188 81H151.188ZM147.482 66.6425C145.064 63.4806 141.213 62 136.188 62V64C140.828 64 143.978 65.3527 145.893 67.8575L147.482 66.6425ZM136.188 62H123.688V64H136.188V62ZM122.688 63V113H124.688V63H122.688ZM123.688 114H133.688V112H123.688V114ZM205.768 204L206.498 203.317L205.768 204ZM205.768 47L206.498 47.6829L205.768 47ZM267.768 47L267.037 47.6829L267.768 47ZM267.768 204L267.037 203.317L267.768 204ZM236.768 214.5C223.461 214.5 213.425 210.727 206.498 203.317L205.037 204.683C212.443 212.606 223.075 216.5 236.768 216.5V214.5ZM206.498 203.317C199.556 195.891 196.018 185.333 196.018 171.5H194.018C194.018 185.667 197.646 196.776 205.037 204.683L206.498 203.317ZM196.018 171.5V79.5H194.018V171.5H196.018ZM196.018 79.5C196.018 65.667 199.556 55.1095 206.498 47.6829L205.037 46.3171C197.646 54.2238 194.018 65.333 194.018 79.5H196.018ZM206.498 47.6829C213.425 40.2725 223.461 36.5 236.768 36.5V34.5C223.075 34.5 212.443 38.3941 205.037 46.3171L206.498 47.6829ZM236.768 36.5C250.075 36.5 260.11 40.2725 267.037 47.6829L268.498 46.3171C261.092 38.3941 250.461 34.5 236.768 34.5V36.5ZM267.037 47.6829C273.979 55.1095 277.518 65.667 277.518 79.5H279.518C279.518 65.333 275.889 54.2238 268.498 46.3171L267.037 47.6829ZM277.518 79.5V171.5H279.518V79.5H277.518ZM277.518 171.5C277.518 185.333 273.979 195.891 267.037 203.317L268.498 204.683C275.889 196.776 279.518 185.667 279.518 171.5H277.518ZM267.037 203.317C260.11 210.727 250.075 214.5 236.768 214.5V216.5C250.461 216.5 261.092 212.606 268.498 204.683L267.037 203.317ZM236.768 191.5C241.727 191.5 245.611 189.99 248.226 186.824C250.811 183.696 252.018 179.113 252.018 173.25H250.018C250.018 178.887 248.849 182.929 246.684 185.551C244.549 188.135 241.308 189.5 236.768 189.5V191.5ZM252.018 173.25V77.75H250.018V173.25H252.018ZM252.018 77.75C252.018 71.8874 250.811 67.3045 248.226 64.1756C245.611 61.0102 241.727 59.5 236.768 59.5V61.5C241.308 61.5 244.549 62.8648 246.684 65.4494C248.849 68.0705 250.018 72.1126 250.018 77.75H252.018ZM236.768 59.5C231.808 59.5 227.924 61.0102 225.309 64.1756C222.724 67.3045 221.518 71.8874 221.518 77.75H223.518C223.518 72.1126 224.686 68.0705 226.851 65.4494C228.986 62.8648 232.227 61.5 236.768 61.5V59.5ZM221.518 77.75V173.25H223.518V77.75H221.518ZM221.518 173.25C221.518 179.113 222.724 183.696 225.309 186.824C227.924 189.99 231.808 191.5 236.768 191.5V189.5C232.227 189.5 228.986 188.135 226.851 185.551C224.686 182.929 223.518 178.887 223.518 173.25H221.518ZM297.115 38V37H296.115V38H297.115ZM331.615 38L332.584 37.7526L332.392 37H331.615V38ZM358.365 142.75L357.396 142.997L357.589 143.75H358.365V142.75ZM358.865 142.75V143.75H359.865V142.75H358.865ZM358.865 38V37H357.865V38H358.865ZM383.365 38H384.365V37H383.365V38ZM383.365 213V214H384.365V213H383.365ZM355.115 213L354.147 213.25L354.341 214H355.115V213ZM322.115 85.25L323.083 84.9999L322.89 84.25H322.115V85.25ZM321.615 85.25V84.25H320.615V85.25H321.615ZM321.615 213V214H322.615V213H321.615ZM297.115 213H296.115V214H297.115V213ZM297.115 39H331.615V37H297.115V39ZM330.646 38.2474L357.396 142.997L359.334 142.503L332.584 37.7526L330.646 38.2474ZM358.365 143.75H358.865V141.75H358.365V143.75ZM359.865 142.75V38H357.865V142.75H359.865ZM358.865 39H383.365V37H358.865V39ZM382.365 38V213H384.365V38H382.365ZM383.365 212H355.115V214H383.365V212ZM356.083 212.75L323.083 84.9999L321.147 85.5001L354.147 213.25L356.083 212.75ZM322.115 84.25H321.615V86.25H322.115V84.25ZM320.615 85.25V213H322.615V85.25H320.615ZM321.615 212H297.115V214H321.615V212ZM298.115 213V38H296.115V213H298.115ZM425.305 63H426.305V62H425.305V63ZM396.555 63H395.555V64H396.555V63ZM396.555 38V37H395.555V38H396.555ZM481.555 38H482.555V37H481.555V38ZM481.555 63V64H482.555V63H481.555ZM452.805 63V62H451.805V63H452.805ZM452.805 213V214H453.805V213H452.805ZM425.305 213H424.305V214H425.305V213ZM425.305 62H396.555V64H425.305V62ZM397.555 63V38H395.555V63H397.555ZM396.555 39H481.555V37H396.555V39ZM480.555 38V63H482.555V38H480.555ZM481.555 62H452.805V64H481.555V62ZM451.805 63V213H453.805V63H451.805ZM452.805 212H425.305V214H452.805V212ZM426.305 213V63H424.305V213H426.305ZM472.559 113V112H471.559V113H472.559ZM527.559 113H528.559V112H527.559V113ZM527.559 138V139H528.559V138H527.559ZM472.559 138H471.559V139H472.559V138ZM472.559 114H527.559V112H472.559V114ZM526.559 113V138H528.559V113H526.559ZM527.559 137H472.559V139H527.559V137ZM473.559 138V113H471.559V138H473.559ZM543.941 38V37H542.941V38H543.941ZM618.941 38H619.941V37H618.941V38ZM618.941 63V64H619.941V63H618.941ZM571.441 63V62H570.441V63H571.441ZM571.441 109.25H570.441V110.25H571.441V109.25ZM609.191 109.25H610.191V108.25H609.191V109.25ZM609.191 134.25V135.25H610.191V134.25H609.191ZM571.441 134.25V133.25H570.441V134.25H571.441ZM571.441 188H570.441V189H571.441V188ZM618.941 188H619.941V187H618.941V188ZM618.941 213V214H619.941V213H618.941ZM543.941 213H542.941V214H543.941V213ZM543.941 39H618.941V37H543.941V39ZM617.941 38V63H619.941V38H617.941ZM618.941 62H571.441V64H618.941V62ZM570.441 63V109.25H572.441V63H570.441ZM571.441 110.25H609.191V108.25H571.441V110.25ZM608.191 109.25V134.25H610.191V109.25H608.191ZM609.191 133.25H571.441V135.25H609.191V133.25ZM570.441 134.25V188H572.441V134.25H570.441ZM571.441 189H618.941V187H571.441V189ZM617.941 188V213H619.941V188H617.941ZM618.941 212H543.941V214H618.941V212ZM544.941 213V38H542.941V213H544.941ZM634.762 38V37H633.762V38H634.762ZM669.262 38L670.231 37.7526L670.038 37H669.262V38ZM696.012 142.75L695.043 142.997L695.235 143.75H696.012V142.75ZM696.512 142.75V143.75H697.512V142.75H696.512ZM696.512 38V37H695.512V38H696.512ZM721.012 38H722.012V37H721.012V38ZM721.012 213V214H722.012V213H721.012ZM692.762 213L691.794 213.25L691.987 214H692.762V213ZM659.762 85.25L660.73 84.9999L660.536 84.25H659.762V85.25ZM659.262 85.25V84.25H658.262V85.25H659.262ZM659.262 213V214H660.262V213H659.262ZM634.762 213H633.762V214H634.762V213ZM634.762 39H669.262V37H634.762V39ZM668.293 38.2474L695.043 142.997L696.981 142.503L670.231 37.7526L668.293 38.2474ZM696.012 143.75H696.512V141.75H696.012V143.75ZM697.512 142.75V38H695.512V142.75H697.512ZM696.512 39H721.012V37H696.512V39ZM720.012 38V213H722.012V38H720.012ZM721.012 212H692.762V214H721.012V212ZM693.73 212.75L660.73 84.9999L658.794 85.5001L691.794 213.25L693.73 212.75ZM659.762 84.25H659.262V86.25H659.762V84.25ZM658.262 85.25V213H660.262V85.25H658.262ZM659.262 212H634.762V214H659.262V212ZM635.762 213V38H633.762V213H635.762ZM741.451 38V37H740.451V38H741.451ZM814.201 49L813.47 49.6817L814.201 49ZM814.201 202L813.47 201.318L814.201 202ZM741.451 213H740.451V214H741.451V213ZM793.201 184L792.472 183.316L792.46 183.329L792.449 183.341L793.201 184ZM793.201 67L792.449 67.6585L792.46 67.6714L792.472 67.6839L793.201 67ZM768.951 63V62H767.951V63H768.951ZM768.951 188H767.951V189H768.951V188ZM741.451 39H783.451V37H741.451V39ZM783.451 39C796.945 39 806.886 42.6169 813.47 49.6817L814.933 48.3183C807.849 40.7164 797.291 37 783.451 37V39ZM813.47 49.6817C820.07 56.7654 823.451 67.2317 823.451 81.25H825.451C825.451 66.935 821.999 55.9012 814.933 48.3183L813.47 49.6817ZM823.451 81.25V169.75H825.451V81.25H823.451ZM823.451 169.75C823.451 183.768 820.07 194.235 813.47 201.318L814.933 202.682C821.999 195.099 825.451 184.065 825.451 169.75H823.451ZM813.47 201.318C806.886 208.383 796.945 212 783.451 212V214C797.291 214 807.849 210.284 814.933 202.682L813.47 201.318ZM783.451 212H741.451V214H783.451V212ZM742.451 213V38H740.451V213H742.451ZM782.951 189C787.656 189 791.382 187.598 793.954 184.659L792.449 183.341C790.354 185.735 787.246 187 782.951 187V189ZM793.931 184.684C796.687 181.744 797.951 177.1 797.951 171H795.951C795.951 176.9 794.716 180.923 792.472 183.316L793.931 184.684ZM797.951 171V80H795.951V171H797.951ZM797.951 80C797.951 73.8996 796.687 69.2559 793.931 66.316L792.472 67.6839C794.716 70.0774 795.951 74.1004 795.951 80H797.951ZM793.954 66.3415C791.382 63.402 787.656 62 782.951 62V64C787.246 64 790.354 65.2647 792.449 67.6585L793.954 66.3415ZM782.951 62H768.951V64H782.951V62ZM767.951 63V188H769.951V63H767.951ZM768.951 189H782.951V187H768.951V189ZM883.053 38V37H882.053V38H883.053ZM955.803 49L955.071 49.6817L955.803 49ZM955.803 202L955.071 201.318L955.803 202ZM883.053 213H882.053V214H883.053V213ZM934.803 184L934.073 183.316L934.061 183.329L934.05 183.341L934.803 184ZM934.803 67L934.05 67.6585L934.061 67.6714L934.073 67.6839L934.803 67ZM910.553 63V62H909.553V63H910.553ZM910.553 188H909.553V189H910.553V188ZM883.053 39H925.053V37H883.053V39ZM925.053 39C938.546 39 948.488 42.6169 955.071 49.6817L956.534 48.3183C949.451 40.7164 938.892 37 925.053 37V39ZM955.071 49.6817C961.672 56.7654 965.053 67.2317 965.053 81.25H967.053C967.053 66.935 963.6 55.9012 956.534 48.3183L955.071 49.6817ZM965.053 81.25V169.75H967.053V81.25H965.053ZM965.053 169.75C965.053 183.768 961.672 194.235 955.071 201.318L956.534 202.682C963.6 195.099 967.053 184.065 967.053 169.75H965.053ZM955.071 201.318C948.488 208.383 938.546 212 925.053 212V214C938.892 214 949.451 210.284 956.534 202.682L955.071 201.318ZM925.053 212H883.053V214H925.053V212ZM884.053 213V38H882.053V213H884.053ZM924.553 189C929.258 189 932.983 187.598 935.555 184.659L934.05 183.341C931.956 185.735 928.848 187 924.553 187V189ZM935.532 184.684C938.288 181.744 939.553 177.1 939.553 171H937.553C937.553 176.9 936.317 180.923 934.073 183.316L935.532 184.684ZM939.553 171V80H937.553V171H939.553ZM939.553 80C939.553 73.8996 938.288 69.2559 935.532 66.316L934.073 67.6839C936.317 70.0774 937.553 74.1004 937.553 80H939.553ZM935.555 66.3415C932.983 63.402 929.258 62 924.553 62V64C928.848 64 931.956 65.2647 934.05 67.6585L935.555 66.3415ZM924.553 62H910.553V64H924.553V62ZM909.553 63V188H911.553V63H909.553ZM910.553 189H924.553V187H910.553V189ZM984.615 38V37H983.615V38H984.615ZM1059.62 38H1060.62V37H1059.62V38ZM1059.62 63V64H1060.62V63H1059.62ZM1012.12 63V62H1011.12V63H1012.12ZM1012.12 109.25H1011.12V110.25H1012.12V109.25ZM1049.87 109.25H1050.87V108.25H1049.87V109.25ZM1049.87 134.25V135.25H1050.87V134.25H1049.87ZM1012.12 134.25V133.25H1011.12V134.25H1012.12ZM1012.12 188H1011.12V189H1012.12V188ZM1059.62 188H1060.62V187H1059.62V188ZM1059.62 213V214H1060.62V213H1059.62ZM984.615 213H983.615V214H984.615V213ZM984.615 39H1059.62V37H984.615V39ZM1058.62 38V63H1060.62V38H1058.62ZM1059.62 62H1012.12V64H1059.62V62ZM1011.12 63V109.25H1013.12V63H1011.12ZM1012.12 110.25H1049.87V108.25H1012.12V110.25ZM1048.87 109.25V134.25H1050.87V109.25H1048.87ZM1049.87 133.25H1012.12V135.25H1049.87V133.25ZM1011.12 134.25V188H1013.12V134.25H1011.12ZM1012.12 189H1059.62V187H1012.12V189ZM1058.62 188V213H1060.62V188H1058.62ZM1059.62 212H984.615V214H1059.62V212ZM985.615 213V38H983.615V213H985.615ZM1068.19 38V37H1067.02L1067.2 38.1497L1068.19 38ZM1095.94 38L1096.93 37.8685L1096.81 37H1095.94V38ZM1113.94 173.75L1112.94 173.881L1113.06 174.75H1113.94V173.75ZM1114.44 173.75V174.75H1115.31L1115.43 173.881L1114.44 173.75ZM1132.44 38V37H1131.56L1131.44 37.8685L1132.44 38ZM1157.69 38L1158.67 38.1497L1158.85 37H1157.69V38ZM1131.19 213V214H1132.05L1132.17 213.15L1131.19 213ZM1094.69 213L1093.7 213.15L1093.83 214H1094.69V213ZM1068.19 39H1095.94V37H1068.19V39ZM1094.94 38.1314L1112.94 173.881L1114.93 173.619L1096.93 37.8685L1094.94 38.1314ZM1113.94 174.75H1114.44V172.75H1113.94V174.75ZM1115.43 173.881L1133.43 38.1314L1131.44 37.8685L1113.44 173.619L1115.43 173.881ZM1132.44 39H1157.69V37H1132.44V39ZM1156.7 37.8503L1130.2 212.85L1132.17 213.15L1158.67 38.1497L1156.7 37.8503ZM1131.19 212H1094.69V214H1131.19V212ZM1095.67 212.85L1069.17 37.8503L1067.2 38.1497L1093.7 213.15L1095.67 212.85ZM1170.89 38V37H1169.89V38H1170.89ZM1245.89 38H1246.89V37H1245.89V38ZM1245.89 63V64H1246.89V63H1245.89ZM1198.39 63V62H1197.39V63H1198.39ZM1198.39 109.25H1197.39V110.25H1198.39V109.25ZM1236.14 109.25H1237.14V108.25H1236.14V109.25ZM1236.14 134.25V135.25H1237.14V134.25H1236.14ZM1198.39 134.25V133.25H1197.39V134.25H1198.39ZM1198.39 188H1197.39V189H1198.39V188ZM1245.89 188H1246.89V187H1245.89V188ZM1245.89 213V214H1246.89V213H1245.89ZM1170.89 213H1169.89V214H1170.89V213ZM1170.89 39H1245.89V37H1170.89V39ZM1244.89 38V63H1246.89V38H1244.89ZM1245.89 62H1198.39V64H1245.89V62ZM1197.39 63V109.25H1199.39V63H1197.39ZM1198.39 110.25H1236.14V108.25H1198.39V110.25ZM1235.14 109.25V134.25H1237.14V109.25H1235.14ZM1236.14 133.25H1198.39V135.25H1236.14V133.25ZM1197.39 134.25V188H1199.39V134.25H1197.39ZM1198.39 189H1245.89V187H1198.39V189ZM1244.89 188V213H1246.89V188H1244.89ZM1245.89 212H1170.89V214H1245.89V212ZM1171.89 213V38H1169.89V213H1171.89ZM1261.71 38V37H1260.71V38H1261.71ZM1289.21 38H1290.21V37H1289.21V38ZM1289.21 188H1288.21V189H1289.21V188ZM1334.46 188H1335.46V187H1334.46V188ZM1334.46 213V214H1335.46V213H1334.46ZM1261.71 213H1260.71V214H1261.71V213ZM1261.71 39H1289.21V37H1261.71V39ZM1288.21 38V188H1290.21V38H1288.21ZM1289.21 189H1334.46V187H1289.21V189ZM1333.46 188V213H1335.46V188H1333.46ZM1334.46 212H1261.71V214H1334.46V212ZM1262.71 213V38H1260.71V213H1262.71ZM1355.43 204L1356.16 203.317L1355.43 204ZM1355.43 47L1356.16 47.6829L1355.43 47ZM1417.43 47L1416.7 47.6829L1417.43 47ZM1417.43 204L1416.7 203.317L1417.43 204ZM1386.43 214.5C1373.12 214.5 1363.08 210.727 1356.16 203.317L1354.7 204.683C1362.1 212.606 1372.73 216.5 1386.43 216.5V214.5ZM1356.16 203.317C1349.21 195.891 1345.68 185.333 1345.68 171.5H1343.68C1343.68 185.667 1347.3 196.776 1354.7 204.683L1356.16 203.317ZM1345.68 171.5V79.5H1343.68V171.5H1345.68ZM1345.68 79.5C1345.68 65.667 1349.21 55.1095 1356.16 47.6829L1354.7 46.3171C1347.3 54.2238 1343.68 65.333 1343.68 79.5H1345.68ZM1356.16 47.6829C1363.08 40.2725 1373.12 36.5 1386.43 36.5V34.5C1372.73 34.5 1362.1 38.3941 1354.7 46.3171L1356.16 47.6829ZM1386.43 36.5C1399.73 36.5 1409.77 40.2725 1416.7 47.6829L1418.16 46.3171C1410.75 38.3941 1400.12 34.5 1386.43 34.5V36.5ZM1416.7 47.6829C1423.64 55.1095 1427.18 65.667 1427.18 79.5H1429.18C1429.18 65.333 1425.55 54.2238 1418.16 46.3171L1416.7 47.6829ZM1427.18 79.5V171.5H1429.18V79.5H1427.18ZM1427.18 171.5C1427.18 185.333 1423.64 195.891 1416.7 203.317L1418.16 204.683C1425.55 196.776 1429.18 185.667 1429.18 171.5H1427.18ZM1416.7 203.317C1409.77 210.727 1399.73 214.5 1386.43 214.5V216.5C1400.12 216.5 1410.75 212.606 1418.16 204.683L1416.7 203.317ZM1386.43 191.5C1391.39 191.5 1395.27 189.99 1397.88 186.824C1400.47 183.696 1401.68 179.113 1401.68 173.25H1399.68C1399.68 178.887 1398.51 182.929 1396.34 185.551C1394.21 188.135 1390.97 189.5 1386.43 189.5V191.5ZM1401.68 173.25V77.75H1399.68V173.25H1401.68ZM1401.68 77.75C1401.68 71.8874 1400.47 67.3045 1397.88 64.1756C1395.27 61.0102 1391.39 59.5 1386.43 59.5V61.5C1390.97 61.5 1394.21 62.8648 1396.34 65.4494C1398.51 68.0705 1399.68 72.1126 1399.68 77.75H1401.68ZM1386.43 59.5C1381.47 59.5 1377.58 61.0102 1374.97 64.1756C1372.38 67.3045 1371.18 71.8874 1371.18 77.75H1373.18C1373.18 72.1126 1374.34 68.0705 1376.51 65.4494C1378.64 62.8648 1381.89 61.5 1386.43 61.5V59.5ZM1371.18 77.75V173.25H1373.18V77.75H1371.18ZM1371.18 173.25C1371.18 179.113 1372.38 183.696 1374.97 186.824C1377.58 189.99 1381.47 191.5 1386.43 191.5V189.5C1381.89 189.5 1378.64 188.135 1376.51 185.551C1374.34 182.929 1373.18 178.887 1373.18 173.25H1371.18ZM1446.77 38V37H1445.77V38H1446.77ZM1518.02 49L1517.29 49.6817L1518.02 49ZM1518.02 130.75L1517.29 130.068L1518.02 130.75ZM1474.27 141.75V140.75H1473.27V141.75H1474.27ZM1474.27 213V214H1475.27V213H1474.27ZM1446.77 213H1445.77V214H1446.77V213ZM1497.27 113L1496.54 112.318L1496.53 112.331L1496.52 112.345L1497.27 113ZM1497.27 66.75L1496.52 67.4049L1496.53 67.4188L1496.54 67.4323L1497.27 66.75ZM1474.27 63V62H1473.27V63H1474.27ZM1474.27 116.75H1473.27V117.75H1474.27V116.75ZM1446.77 39H1487.27V37H1446.77V39ZM1487.27 39C1500.77 39 1510.71 42.6169 1517.29 49.6817L1518.76 48.3183C1511.67 40.7164 1501.11 37 1487.27 37V39ZM1517.29 49.6817C1523.89 56.7654 1527.27 67.2317 1527.27 81.25H1529.27C1529.27 66.935 1525.82 55.9012 1518.76 48.3183L1517.29 49.6817ZM1527.27 81.25V98.5H1529.27V81.25H1527.27ZM1527.27 98.5C1527.27 112.518 1523.89 122.985 1517.29 130.068L1518.76 131.432C1525.82 123.849 1529.27 112.815 1529.27 98.5H1527.27ZM1517.29 130.068C1510.71 137.133 1500.77 140.75 1487.27 140.75V142.75C1501.11 142.75 1511.67 139.034 1518.76 131.432L1517.29 130.068ZM1487.27 140.75H1474.27V142.75H1487.27V140.75ZM1473.27 141.75V213H1475.27V141.75H1473.27ZM1474.27 212H1446.77V214H1474.27V212ZM1447.77 213V38H1445.77V213H1447.77ZM1487.27 117.75C1491.95 117.75 1495.61 116.445 1498.03 113.655L1496.52 112.345C1494.6 114.555 1491.59 115.75 1487.27 115.75V117.75ZM1498 113.682C1500.6 110.9 1501.77 106.328 1501.77 100.25H1499.77C1499.77 106.172 1498.61 110.1 1496.54 112.318L1498 113.682ZM1501.77 100.25V79.5H1499.77V100.25H1501.77ZM1501.77 79.5C1501.77 73.4216 1500.6 68.85 1498 66.0677L1496.54 67.4323C1498.61 69.65 1499.77 73.5784 1499.77 79.5H1501.77ZM1498.03 66.0951C1495.61 63.3048 1491.95 62 1487.27 62V64C1491.59 64 1494.6 65.1952 1496.52 67.4049L1498.03 66.0951ZM1487.27 62H1474.27V64H1487.27V62ZM1473.27 63V116.75H1475.27V63H1473.27ZM1474.27 117.75H1487.27V115.75H1474.27V117.75ZM1543.21 38V37H1542.21V38H1543.21ZM1618.21 38H1619.21V37H1618.21V38ZM1618.21 63V64H1619.21V63H1618.21ZM1570.71 63V62H1569.71V63H1570.71ZM1570.71 109.25H1569.71V110.25H1570.71V109.25ZM1608.46 109.25H1609.46V108.25H1608.46V109.25ZM1608.46 134.25V135.25H1609.46V134.25H1608.46ZM1570.71 134.25V133.25H1569.71V134.25H1570.71ZM1570.71 188H1569.71V189H1570.71V188ZM1618.21 188H1619.21V187H1618.21V188ZM1618.21 213V214H1619.21V213H1618.21ZM1543.21 213H1542.21V214H1543.21V213ZM1543.21 39H1618.21V37H1543.21V39ZM1617.21 38V63H1619.21V38H1617.21ZM1618.21 62H1570.71V64H1618.21V62ZM1569.71 63V109.25H1571.71V63H1569.71ZM1570.71 110.25H1608.46V108.25H1570.71V110.25ZM1607.46 109.25V134.25H1609.46V109.25H1607.46ZM1608.46 133.25H1570.71V135.25H1608.46V133.25ZM1569.71 134.25V188H1571.71V134.25H1569.71ZM1570.71 189H1618.21V187H1570.71V189ZM1617.21 188V213H1619.21V188H1617.21ZM1618.21 212H1543.21V214H1618.21V212ZM1544.21 213V38H1542.21V213H1544.21ZM1634.03 38V37H1633.03V38H1634.03ZM1705.78 48L1705.06 48.6982L1705.07 48.7071L1705.78 48ZM1697.53 123.5L1697.16 122.572L1696.53 122.825V123.5H1697.53ZM1697.53 124H1696.53V124.744L1697.24 124.958L1697.53 124ZM1711.53 136.25L1710.61 136.647L1710.62 136.657L1710.62 136.667L1711.53 136.25ZM1716.28 204L1715.28 204.105L1715.29 204.11L1716.28 204ZM1718.78 213V214H1720.32L1719.69 212.594L1718.78 213ZM1690.78 213L1689.84 213.333L1690.07 214H1690.78V213ZM1684.28 142.75L1683.49 143.37L1683.5 143.382L1683.51 143.394L1684.28 142.75ZM1661.53 138V137H1660.53V138H1661.53ZM1661.53 213V214H1662.53V213H1661.53ZM1634.03 213H1633.03V214H1634.03V213ZM1683.78 108.75L1683.07 108.043L1683.06 108.054L1683.05 108.065L1683.78 108.75ZM1684.53 67.25L1683.73 67.8575L1683.75 67.8718L1683.76 67.8857L1684.53 67.25ZM1661.53 63V62H1660.53V63H1661.53ZM1661.53 113H1660.53V114H1661.53V113ZM1634.03 39H1674.78V37H1634.03V39ZM1674.78 39C1688.82 39 1698.83 42.3052 1705.06 48.6981L1706.5 47.3019C1699.73 40.3615 1689.08 37 1674.78 37V39ZM1705.07 48.7071C1711.31 54.9452 1714.53 64.7205 1714.53 78.25H1716.53C1716.53 64.4461 1713.25 54.0548 1706.49 47.2929L1705.07 48.7071ZM1714.53 78.25V89H1716.53V78.25H1714.53ZM1714.53 89C1714.53 97.9831 1713.04 105.226 1710.14 110.787C1707.25 116.327 1702.93 120.245 1697.16 122.572L1697.9 124.428C1704.12 121.922 1708.81 117.673 1711.92 111.713C1715.01 105.774 1716.53 98.1836 1716.53 89H1714.53ZM1696.53 123.5V124H1698.53V123.5H1696.53ZM1697.24 124.958C1703.64 126.877 1708.07 130.762 1710.61 136.647L1712.45 135.853C1709.66 129.405 1704.75 125.123 1697.82 123.042L1697.24 124.958ZM1710.62 136.667C1713.37 142.653 1714.78 150.743 1714.78 161H1716.78C1716.78 150.591 1715.35 142.18 1712.44 135.832L1710.62 136.667ZM1714.78 161V191.75H1716.78V161H1714.78ZM1714.78 191.75C1714.78 196.768 1714.95 200.889 1715.28 204.105L1717.27 203.895C1716.95 200.777 1716.78 196.732 1716.78 191.75H1714.78ZM1715.29 204.11C1715.63 207.221 1716.49 210.32 1717.87 213.406L1719.69 212.594C1718.4 209.68 1717.59 206.779 1717.27 203.89L1715.29 204.11ZM1718.78 212H1690.78V214H1718.78V212ZM1691.72 212.667C1690.74 209.887 1690.09 207.288 1689.77 204.868L1687.79 205.132C1688.13 207.712 1688.82 210.446 1689.84 213.333L1691.72 212.667ZM1689.77 204.868C1689.45 202.442 1689.28 198.004 1689.28 191.5H1687.28C1687.28 197.996 1687.44 202.558 1687.79 205.132L1689.77 204.868ZM1689.28 191.5V159.5H1687.28V191.5H1689.28ZM1689.28 159.5C1689.28 151.454 1687.95 145.558 1685.04 142.106L1683.51 143.394C1685.94 146.275 1687.28 151.546 1687.28 159.5H1689.28ZM1685.06 142.13C1682.29 138.613 1677.49 137 1671.03 137V139C1677.23 139 1681.27 140.554 1683.49 143.37L1685.06 142.13ZM1671.03 137H1661.53V139H1671.03V137ZM1660.53 138V213H1662.53V138H1660.53ZM1661.53 212H1634.03V214H1661.53V212ZM1635.03 213V38H1633.03V213H1635.03ZM1671.53 114C1677.19 114 1681.58 112.541 1684.51 109.435L1683.05 108.065C1680.64 110.626 1676.87 112 1671.53 112V114ZM1684.49 109.457C1687.6 106.344 1689.03 101.265 1689.03 94.5H1687.03C1687.03 101.068 1685.63 105.489 1683.07 108.043L1684.49 109.457ZM1689.03 94.5V81H1687.03V94.5H1689.03ZM1689.03 81C1689.03 74.5873 1687.86 69.7168 1685.3 66.6143L1683.76 67.8857C1685.87 70.4498 1687.03 74.746 1687.03 81H1689.03ZM1685.32 66.6425C1682.91 63.4806 1679.06 62 1674.03 62V64C1678.67 64 1681.82 65.3527 1683.73 67.8575L1685.32 66.6425ZM1674.03 62H1661.53V64H1674.03V62ZM1660.53 63V113H1662.53V63H1660.53ZM1661.53 114H1671.53V112H1661.53V114Z" fill="white" mask="url(#path-1-outside-1_927_120)"/>
</g>
<g filter="url(#filter1_d_927_120)">
<path d="M20.25 114H93V139H47.75V187.75H83.25V212.75H47.75V289H20.25V114ZM106.188 114H146.938C161.104 114 171.438 117.333 177.938 124C184.438 130.5 187.688 140.583 187.688 154.25V165C187.688 183.167 181.688 194.667 169.688 199.5V200C176.354 202 181.021 206.083 183.688 212.25C186.521 218.417 187.938 226.667 187.938 237V267.75C187.938 272.75 188.104 276.833 188.438 280C188.771 283 189.604 286 190.938 289H162.938C161.938 286.167 161.271 283.5 160.938 281C160.604 278.5 160.438 274 160.438 267.5V235.5C160.438 227.5 159.104 221.917 156.438 218.75C153.938 215.583 149.521 214 143.188 214H133.688V289H106.188V114ZM143.688 189C149.188 189 153.271 187.583 155.938 184.75C158.771 181.917 160.187 177.167 160.187 170.5V157C160.187 150.667 159.021 146.083 156.688 143.25C154.521 140.417 151.021 139 146.188 139H133.688V189H143.688ZM246.768 291.5C233.268 291.5 222.934 287.667 215.768 280C208.601 272.333 205.018 261.5 205.018 247.5V155.5C205.018 141.5 208.601 130.667 215.768 123C222.934 115.333 233.268 111.5 246.768 111.5C260.268 111.5 270.601 115.333 277.768 123C284.934 130.667 288.518 141.5 288.518 155.5V247.5C288.518 261.5 284.934 272.333 277.768 280C270.601 287.667 260.268 291.5 246.768 291.5ZM246.768 266.5C256.268 266.5 261.018 260.75 261.018 249.25V153.75C261.018 142.25 256.268 136.5 246.768 136.5C237.268 136.5 232.518 142.25 232.518 153.75V249.25C232.518 260.75 237.268 266.5 246.768 266.5ZM307.115 114H341.615L368.365 218.75H368.865V114H393.365V289H365.115L332.115 161.25H331.615V289H307.115V114ZM435.305 139H406.555V114H491.555V139H462.805V289H435.305V139ZM482.559 189H537.559V214H482.559V189ZM553.941 114H628.941V139H581.441V185.25H619.191V210.25H581.441V264H628.941V289H553.941V114ZM644.762 114H679.262L706.012 218.75H706.512V114H731.012V289H702.762L669.762 161.25H669.262V289H644.762V114ZM751.451 114H793.451C807.118 114 817.368 117.667 824.201 125C831.035 132.333 834.451 143.083 834.451 157.25V245.75C834.451 259.917 831.035 270.667 824.201 278C817.368 285.333 807.118 289 793.451 289H751.451V114ZM792.951 264C797.451 264 800.868 262.667 803.201 260C805.701 257.333 806.951 253 806.951 247V156C806.951 150 805.701 145.667 803.201 143C800.868 140.333 797.451 139 792.951 139H778.951V264H792.951ZM893.053 114H935.053C948.719 114 958.969 117.667 965.803 125C972.636 132.333 976.053 143.083 976.053 157.25V245.75C976.053 259.917 972.636 270.667 965.803 278C958.969 285.333 948.719 289 935.053 289H893.053V114ZM934.553 264C939.053 264 942.469 262.667 944.803 260C947.303 257.333 948.553 253 948.553 247V156C948.553 150 947.303 145.667 944.803 143C942.469 140.333 939.053 139 934.553 139H920.553V264H934.553ZM994.615 114H1069.62V139H1022.12V185.25H1059.87V210.25H1022.12V264H1069.62V289H994.615V114ZM1078.19 114H1105.94L1123.94 249.75H1124.44L1142.44 114H1167.69L1141.19 289H1104.69L1078.19 114ZM1180.89 114H1255.89V139H1208.39V185.25H1246.14V210.25H1208.39V264H1255.89V289H1180.89V114ZM1271.71 114H1299.21V264H1344.46V289H1271.71V114ZM1396.43 291.5C1382.93 291.5 1372.59 287.667 1365.43 280C1358.26 272.333 1354.68 261.5 1354.68 247.5V155.5C1354.68 141.5 1358.26 130.667 1365.43 123C1372.59 115.333 1382.93 111.5 1396.43 111.5C1409.93 111.5 1420.26 115.333 1427.43 123C1434.59 130.667 1438.18 141.5 1438.18 155.5V247.5C1438.18 261.5 1434.59 272.333 1427.43 280C1420.26 287.667 1409.93 291.5 1396.43 291.5ZM1396.43 266.5C1405.93 266.5 1410.68 260.75 1410.68 249.25V153.75C1410.68 142.25 1405.93 136.5 1396.43 136.5C1386.93 136.5 1382.18 142.25 1382.18 153.75V249.25C1382.18 260.75 1386.93 266.5 1396.43 266.5ZM1456.77 114H1497.27C1510.94 114 1521.19 117.667 1528.02 125C1534.86 132.333 1538.27 143.083 1538.27 157.25V174.5C1538.27 188.667 1534.86 199.417 1528.02 206.75C1521.19 214.083 1510.94 217.75 1497.27 217.75H1484.27V289H1456.77V114ZM1497.27 192.75C1501.77 192.75 1505.11 191.5 1507.27 189C1509.61 186.5 1510.77 182.25 1510.77 176.25V155.5C1510.77 149.5 1509.61 145.25 1507.27 142.75C1505.11 140.25 1501.77 139 1497.27 139H1484.27V192.75H1497.27ZM1553.21 114H1628.21V139H1580.71V185.25H1618.46V210.25H1580.71V264H1628.21V289H1553.21V114ZM1644.03 114H1684.78C1698.95 114 1709.28 117.333 1715.78 124C1722.28 130.5 1725.53 140.583 1725.53 154.25V165C1725.53 183.167 1719.53 194.667 1707.53 199.5V200C1714.2 202 1718.86 206.083 1721.53 212.25C1724.36 218.417 1725.78 226.667 1725.78 237V267.75C1725.78 272.75 1725.95 276.833 1726.28 280C1726.61 283 1727.45 286 1728.78 289H1700.78C1699.78 286.167 1699.11 283.5 1698.78 281C1698.45 278.5 1698.28 274 1698.28 267.5V235.5C1698.28 227.5 1696.95 221.917 1694.28 218.75C1691.78 215.583 1687.36 214 1681.03 214H1671.53V289H1644.03V114ZM1681.53 189C1687.03 189 1691.11 187.583 1693.78 184.75C1696.61 181.917 1698.03 177.167 1698.03 170.5V157C1698.03 150.667 1696.86 146.083 1694.53 143.25C1692.36 140.417 1688.86 139 1684.03 139H1671.53V189H1681.53Z" fill="white"/>
</g>
<g filter="url(#filter2_d_927_120)">
<mask id="path-4-outside-2_927_120" maskUnits="userSpaceOnUse" x="411" y="360" width="907" height="183" fill="black">
<rect fill="white" x="411" y="360" width="907" height="183"/>
<path d="M453.25 541.5C439.917 541.5 429.75 537.75 422.75 530.25C415.75 522.583 412.25 511.667 412.25 497.5V364H439.75V499.5C439.75 505.5 440.917 509.833 443.25 512.5C445.75 515.167 449.25 516.5 453.75 516.5C458.25 516.5 461.667 515.167 464 512.5C466.5 509.833 467.75 505.5 467.75 499.5V364H494.25V497.5C494.25 511.667 490.75 522.583 483.75 530.25C476.75 537.75 466.583 541.5 453.25 541.5ZM513.836 364H541.336V539H513.836V364ZM601.971 364H643.971C657.637 364 667.887 367.667 674.721 375C681.554 382.333 684.971 393.083 684.971 407.25V495.75C684.971 509.917 681.554 520.667 674.721 528C667.887 535.333 657.637 539 643.971 539H601.971V364ZM643.471 514C647.971 514 651.387 512.667 653.721 510C656.221 507.333 657.471 503 657.471 497V406C657.471 400 656.221 395.667 653.721 393C651.387 390.333 647.971 389 643.471 389H629.471V514H643.471ZM703.533 364H778.533V389H731.033V435.25H768.783V460.25H731.033V514H778.533V539H703.533V364ZM830.592 541.5C817.258 541.5 807.175 537.75 800.342 530.25C793.508 522.583 790.092 511.667 790.092 497.5V487.5H816.092V499.5C816.092 510.833 820.842 516.5 830.342 516.5C835.008 516.5 838.508 515.167 840.842 512.5C843.342 509.667 844.592 505.167 844.592 499C844.592 491.667 842.925 485.25 839.592 479.75C836.258 474.083 830.092 467.333 821.092 459.5C809.758 449.5 801.842 440.5 797.342 432.5C792.842 424.333 790.592 415.167 790.592 405C790.592 391.167 794.092 380.5 801.092 373C808.092 365.333 818.258 361.5 831.592 361.5C844.758 361.5 854.675 365.333 861.342 373C868.175 380.5 871.592 391.333 871.592 405.5V412.75H845.592V403.75C845.592 397.75 844.425 393.417 842.092 390.75C839.758 387.917 836.342 386.5 831.842 386.5C822.675 386.5 818.092 392.083 818.092 403.25C818.092 409.583 819.758 415.5 823.092 421C826.592 426.5 832.842 433.167 841.842 441C853.342 451 861.258 460.083 865.592 468.25C869.925 476.417 872.092 486 872.092 497C872.092 511.333 868.508 522.333 861.342 530C854.342 537.667 844.092 541.5 830.592 541.5ZM887.859 364H915.359V539H887.859V364ZM974.955 541.5C961.622 541.5 951.455 537.75 944.455 530.25C937.455 522.583 933.955 511.667 933.955 497.5V405.5C933.955 391.333 937.455 380.5 944.455 373C951.455 365.333 961.622 361.5 974.955 361.5C988.288 361.5 998.455 365.333 1005.46 373C1012.46 380.5 1015.96 391.333 1015.96 405.5V420.5H989.955V403.75C989.955 392.25 985.205 386.5 975.705 386.5C966.205 386.5 961.455 392.25 961.455 403.75V499.5C961.455 510.833 966.205 516.5 975.705 516.5C985.205 516.5 989.955 510.833 989.955 499.5V465.25H976.205V440.25H1015.96V497.5C1015.96 511.667 1012.46 522.583 1005.46 530.25C998.455 537.75 988.288 541.5 974.955 541.5ZM1033.61 364H1068.11L1094.86 468.75H1095.36V364H1119.86V539H1091.61L1058.61 411.25H1058.11V539H1033.61V364ZM1140.3 364H1215.3V389H1167.8V435.25H1205.55V460.25H1167.8V514H1215.3V539H1140.3V364ZM1231.12 364H1271.87C1286.04 364 1296.37 367.333 1302.87 374C1309.37 380.5 1312.62 390.583 1312.62 404.25V415C1312.62 433.167 1306.62 444.667 1294.62 449.5V450C1301.29 452 1305.95 456.083 1308.62 462.25C1311.45 468.417 1312.87 476.667 1312.87 487V517.75C1312.87 522.75 1313.04 526.833 1313.37 530C1313.7 533 1314.54 536 1315.87 539H1287.87C1286.87 536.167 1286.2 533.5 1285.87 531C1285.54 528.5 1285.37 524 1285.37 517.5V485.5C1285.37 477.5 1284.04 471.917 1281.37 468.75C1278.87 465.583 1274.45 464 1268.12 464H1258.62V539H1231.12V364ZM1268.62 439C1274.12 439 1278.2 437.583 1280.87 434.75C1283.7 431.917 1285.12 427.167 1285.12 420.5V407C1285.12 400.667 1283.95 396.083 1281.62 393.25C1279.45 390.417 1275.95 389 1271.12 389H1258.62V439H1268.62Z"/>
</mask>
<path d="M422.75 530.25L422.011 530.924L422.019 530.932L422.75 530.25ZM412.25 364V363H411.25V364H412.25ZM439.75 364H440.75V363H439.75V364ZM443.25 512.5L442.497 513.159L442.509 513.171L442.52 513.184L443.25 512.5ZM464 512.5L463.27 511.816L463.259 511.829L463.247 511.841L464 512.5ZM467.75 364V363H466.75V364H467.75ZM494.25 364H495.25V363H494.25V364ZM483.75 530.25L484.481 530.932L484.488 530.924L483.75 530.25ZM453.25 540.5C440.106 540.5 430.24 536.809 423.481 529.568L422.019 530.932C429.26 538.691 439.727 542.5 453.25 542.5V540.5ZM423.488 529.576C416.71 522.152 413.25 511.509 413.25 497.5H411.25C411.25 511.824 414.79 523.015 422.012 530.924L423.488 529.576ZM413.25 497.5V364H411.25V497.5H413.25ZM412.25 365H439.75V363H412.25V365ZM438.75 364V499.5H440.75V364H438.75ZM438.75 499.5C438.75 505.587 439.926 510.22 442.497 513.159L444.003 511.841C441.907 509.447 440.75 505.413 440.75 499.5H438.75ZM442.52 513.184C445.252 516.097 449.042 517.5 453.75 517.5V515.5C449.458 515.5 446.248 514.236 443.98 511.816L442.52 513.184ZM453.75 517.5C458.455 517.5 462.18 516.098 464.753 513.159L463.247 511.841C461.153 514.235 458.045 515.5 453.75 515.5V517.5ZM464.73 513.184C467.486 510.244 468.75 505.6 468.75 499.5H466.75C466.75 505.4 465.514 509.423 463.27 511.816L464.73 513.184ZM468.75 499.5V364H466.75V499.5H468.75ZM467.75 365H494.25V363H467.75V365ZM493.25 364V497.5H495.25V364H493.25ZM493.25 497.5C493.25 511.509 489.79 522.152 483.012 529.576L484.488 530.924C491.71 523.015 495.25 511.824 495.25 497.5H493.25ZM483.019 529.568C476.261 536.809 466.394 540.5 453.25 540.5V542.5C466.773 542.5 477.24 538.691 484.481 530.932L483.019 529.568ZM513.836 364V363H512.836V364H513.836ZM541.336 364H542.336V363H541.336V364ZM541.336 539V540H542.336V539H541.336ZM513.836 539H512.836V540H513.836V539ZM513.836 365H541.336V363H513.836V365ZM540.336 364V539H542.336V364H540.336ZM541.336 538H513.836V540H541.336V538ZM514.836 539V364H512.836V539H514.836ZM601.971 364V363H600.971V364H601.971ZM674.721 375L673.989 375.682L674.721 375ZM674.721 528L673.989 527.318L674.721 528ZM601.971 539H600.971V540H601.971V539ZM653.721 510L652.991 509.316L652.979 509.329L652.968 509.341L653.721 510ZM653.721 393L652.968 393.658L652.979 393.671L652.991 393.684L653.721 393ZM629.471 389V388H628.471V389H629.471ZM629.471 514H628.471V515H629.471V514ZM601.971 365H643.971V363H601.971V365ZM643.971 365C657.464 365 667.406 368.617 673.989 375.682L675.452 374.318C668.369 366.716 657.81 363 643.971 363V365ZM673.989 375.682C680.59 382.765 683.971 393.232 683.971 407.25H685.971C685.971 392.935 682.518 381.901 675.452 374.318L673.989 375.682ZM683.971 407.25V495.75H685.971V407.25H683.971ZM683.971 495.75C683.971 509.768 680.59 520.235 673.989 527.318L675.452 528.682C682.518 521.099 685.971 510.065 685.971 495.75H683.971ZM673.989 527.318C667.406 534.383 657.464 538 643.971 538V540C657.81 540 668.369 536.284 675.452 528.682L673.989 527.318ZM643.971 538H601.971V540H643.971V538ZM602.971 539V364H600.971V539H602.971ZM643.471 515C648.175 515 651.901 513.598 654.473 510.659L652.968 509.341C650.874 511.735 647.766 513 643.471 513V515ZM654.45 510.684C657.206 507.744 658.471 503.1 658.471 497H656.471C656.471 502.9 655.235 506.923 652.991 509.316L654.45 510.684ZM658.471 497V406H656.471V497H658.471ZM658.471 406C658.471 399.9 657.206 395.256 654.45 392.316L652.991 393.684C655.235 396.077 656.471 400.1 656.471 406H658.471ZM654.473 392.341C651.901 389.402 648.175 388 643.471 388V390C647.766 390 650.874 391.265 652.968 393.658L654.473 392.341ZM643.471 388H629.471V390H643.471V388ZM628.471 389V514H630.471V389H628.471ZM629.471 515H643.471V513H629.471V515ZM703.533 364V363H702.533V364H703.533ZM778.533 364H779.533V363H778.533V364ZM778.533 389V390H779.533V389H778.533ZM731.033 389V388H730.033V389H731.033ZM731.033 435.25H730.033V436.25H731.033V435.25ZM768.783 435.25H769.783V434.25H768.783V435.25ZM768.783 460.25V461.25H769.783V460.25H768.783ZM731.033 460.25V459.25H730.033V460.25H731.033ZM731.033 514H730.033V515H731.033V514ZM778.533 514H779.533V513H778.533V514ZM778.533 539V540H779.533V539H778.533ZM703.533 539H702.533V540H703.533V539ZM703.533 365H778.533V363H703.533V365ZM777.533 364V389H779.533V364H777.533ZM778.533 388H731.033V390H778.533V388ZM730.033 389V435.25H732.033V389H730.033ZM731.033 436.25H768.783V434.25H731.033V436.25ZM767.783 435.25V460.25H769.783V435.25H767.783ZM768.783 459.25H731.033V461.25H768.783V459.25ZM730.033 460.25V514H732.033V460.25H730.033ZM731.033 515H778.533V513H731.033V515ZM777.533 514V539H779.533V514H777.533ZM778.533 538H703.533V540H778.533V538ZM704.533 539V364H702.533V539H704.533ZM800.342 530.25L799.595 530.915L799.603 530.923L800.342 530.25ZM790.092 487.5V486.5H789.092V487.5H790.092ZM816.092 487.5H817.092V486.5H816.092V487.5ZM840.842 512.5L840.092 511.838L840.089 511.841L840.842 512.5ZM839.592 479.75L838.73 480.257L838.737 480.268L839.592 479.75ZM821.092 459.5L820.43 460.25L820.435 460.254L821.092 459.5ZM797.342 432.5L796.466 432.983L796.47 432.99L797.342 432.5ZM801.092 373L801.823 373.682L801.83 373.674L801.092 373ZM861.342 373L860.587 373.656L860.595 373.665L860.603 373.673L861.342 373ZM871.592 412.75V413.75H872.592V412.75H871.592ZM845.592 412.75H844.592V413.75H845.592V412.75ZM842.092 390.75L841.32 391.386L841.329 391.397L841.339 391.408L842.092 390.75ZM823.092 421L822.237 421.518L822.242 421.528L822.248 421.537L823.092 421ZM841.842 441L841.185 441.754L841.186 441.755L841.842 441ZM865.592 468.25L864.708 468.719L865.592 468.25ZM861.342 530L860.611 529.317L860.603 529.326L861.342 530ZM830.592 540.5C817.447 540.5 807.67 536.808 801.081 529.577L799.603 530.923C806.68 538.692 817.07 542.5 830.592 542.5V540.5ZM801.088 529.585C794.471 522.161 791.092 511.515 791.092 497.5H789.092C789.092 511.819 792.546 523.006 799.595 530.915L801.088 529.585ZM791.092 497.5V487.5H789.092V497.5H791.092ZM790.092 488.5H816.092V486.5H790.092V488.5ZM815.092 487.5V499.5H817.092V487.5H815.092ZM815.092 499.5C815.092 505.282 816.3 509.805 818.888 512.892C821.504 516.014 825.387 517.5 830.342 517.5V515.5C825.797 515.5 822.554 514.153 820.421 511.608C818.259 509.029 817.092 505.051 817.092 499.5H815.092ZM830.342 517.5C835.2 517.5 839.016 516.106 841.594 513.159L840.089 511.841C838.001 514.228 834.817 515.5 830.342 515.5V517.5ZM841.592 513.162C844.328 510.061 845.592 505.266 845.592 499H843.592C843.592 505.067 842.356 509.273 840.092 511.838L841.592 513.162ZM845.592 499C845.592 491.51 843.888 484.909 840.447 479.232L838.737 480.268C841.962 485.591 843.592 491.823 843.592 499H845.592ZM840.454 479.243C837.038 473.436 830.775 466.602 821.748 458.746L820.435 460.254C829.409 468.065 835.479 474.73 838.73 480.257L840.454 479.243ZM821.753 458.75C810.457 448.783 802.634 439.869 798.213 432.01L796.47 432.99C801.049 441.131 809.06 450.217 820.43 460.25L821.753 458.75ZM798.218 432.017C793.806 424.012 791.592 415.014 791.592 405H789.592C789.592 415.32 791.877 424.655 796.466 432.983L798.218 432.017ZM791.592 405C791.592 391.33 795.049 380.941 801.823 373.682L800.361 372.318C793.135 380.059 789.592 391.003 789.592 405H791.592ZM801.83 373.674C808.59 366.27 818.455 362.5 831.592 362.5V360.5C818.062 360.5 807.593 364.396 800.353 372.326L801.83 373.674ZM831.592 362.5C844.56 362.5 854.163 366.269 860.587 373.656L862.096 372.344C855.187 364.398 844.956 360.5 831.592 360.5V362.5ZM860.603 373.673C867.212 380.927 870.592 391.484 870.592 405.5H872.592C872.592 391.183 869.139 380.073 862.081 372.326L860.603 373.673ZM870.592 405.5V412.75H872.592V405.5H870.592ZM871.592 411.75H845.592V413.75H871.592V411.75ZM846.592 412.75V403.75H844.592V412.75H846.592ZM846.592 403.75C846.592 397.663 845.416 393.03 842.844 390.091L841.339 391.408C843.434 393.803 844.592 397.837 844.592 403.75H846.592ZM842.864 390.114C840.298 386.999 836.566 385.5 831.842 385.5V387.5C836.117 387.5 839.219 388.835 841.32 391.386L842.864 390.114ZM831.842 385.5C827.047 385.5 823.287 386.97 820.756 390.053C818.257 393.098 817.092 397.555 817.092 403.25H819.092C819.092 397.778 820.219 393.86 822.302 391.322C824.355 388.822 827.47 387.5 831.842 387.5V385.5ZM817.092 403.25C817.092 409.769 818.81 415.865 822.237 421.518L823.947 420.482C820.707 415.135 819.092 409.398 819.092 403.25H817.092ZM822.248 421.537C825.826 427.159 832.162 433.901 841.185 441.754L842.498 440.246C833.521 432.432 827.358 425.841 823.935 420.463L822.248 421.537ZM841.186 441.755C852.645 451.719 860.458 460.708 864.708 468.719L866.475 467.781C862.059 459.458 854.038 450.281 842.498 440.245L841.186 441.755ZM864.708 468.719C868.952 476.716 871.092 486.133 871.092 497H873.092C873.092 485.867 870.898 476.117 866.475 467.781L864.708 468.719ZM871.092 497C871.092 511.174 867.55 521.895 860.611 529.317L862.072 530.683C869.467 522.772 873.092 511.493 873.092 497H871.092ZM860.603 529.326C853.846 536.727 843.9 540.5 830.592 540.5V542.5C844.284 542.5 854.838 538.606 862.08 530.674L860.603 529.326ZM887.859 364V363H886.859V364H887.859ZM915.359 364H916.359V363H915.359V364ZM915.359 539V540H916.359V539H915.359ZM887.859 539H886.859V540H887.859V539ZM887.859 365H915.359V363H887.859V365ZM914.359 364V539H916.359V364H914.359ZM915.359 538H887.859V540H915.359V538ZM888.859 539V364H886.859V539H888.859ZM944.455 530.25L943.717 530.924L943.724 530.932L944.455 530.25ZM944.455 373L945.186 373.682L945.194 373.674L944.455 373ZM1005.46 373L1004.72 373.674L1004.72 373.682L1005.46 373ZM1015.96 420.5V421.5H1016.96V420.5H1015.96ZM989.955 420.5H988.955V421.5H989.955V420.5ZM989.955 465.25H990.955V464.25H989.955V465.25ZM976.205 465.25H975.205V466.25H976.205V465.25ZM976.205 440.25V439.25H975.205V440.25H976.205ZM1015.96 440.25H1016.96V439.25H1015.96V440.25ZM1005.46 530.25L1006.19 530.932L1006.19 530.924L1005.46 530.25ZM974.955 540.5C961.811 540.5 951.945 536.809 945.186 529.568L943.724 530.932C950.966 538.691 961.432 542.5 974.955 542.5V540.5ZM945.194 529.576C938.415 522.152 934.955 511.509 934.955 497.5H932.955C932.955 511.824 936.495 523.015 943.717 530.924L945.194 529.576ZM934.955 497.5V405.5H932.955V497.5H934.955ZM934.955 405.5C934.955 391.489 938.416 380.936 945.186 373.682L943.724 372.318C936.495 380.064 932.955 391.177 932.955 405.5H934.955ZM945.194 373.674C951.954 366.27 961.818 362.5 974.955 362.5V360.5C961.426 360.5 950.957 364.396 943.717 372.326L945.194 373.674ZM974.955 362.5C988.092 362.5 997.957 366.27 1004.72 373.674L1006.19 372.326C998.954 364.396 988.485 360.5 974.955 360.5V362.5ZM1004.72 373.682C1011.49 380.936 1014.96 391.489 1014.96 405.5H1016.96C1016.96 391.177 1013.42 380.064 1006.19 372.318L1004.72 373.682ZM1014.96 405.5V420.5H1016.96V405.5H1014.96ZM1015.96 419.5H989.955V421.5H1015.96V419.5ZM990.955 420.5V403.75H988.955V420.5H990.955ZM990.955 403.75C990.955 397.887 989.748 393.304 987.164 390.176C984.549 387.01 980.665 385.5 975.705 385.5V387.5C980.245 387.5 983.487 388.865 985.622 391.449C987.787 394.071 988.955 398.113 988.955 403.75H990.955ZM975.705 385.5C970.745 385.5 966.862 387.01 964.247 390.176C961.662 393.304 960.455 397.887 960.455 403.75H962.455C962.455 398.113 963.623 394.071 965.789 391.449C967.924 388.865 971.165 387.5 975.705 387.5V385.5ZM960.455 403.75V499.5H962.455V403.75H960.455ZM960.455 499.5C960.455 505.282 961.663 509.805 964.251 512.892C966.868 516.014 970.75 517.5 975.705 517.5V515.5C971.16 515.5 967.917 514.153 965.784 511.608C963.622 509.029 962.455 505.051 962.455 499.5H960.455ZM975.705 517.5C980.66 517.5 984.542 516.014 987.159 512.892C989.747 509.805 990.955 505.282 990.955 499.5H988.955C988.955 505.051 987.788 509.029 985.626 511.608C983.493 514.153 980.25 515.5 975.705 515.5V517.5ZM990.955 499.5V465.25H988.955V499.5H990.955ZM989.955 464.25H976.205V466.25H989.955V464.25ZM977.205 465.25V440.25H975.205V465.25H977.205ZM976.205 441.25H1015.96V439.25H976.205V441.25ZM1014.96 440.25V497.5H1016.96V440.25H1014.96ZM1014.96 497.5C1014.96 511.509 1011.5 522.152 1004.72 529.576L1006.19 530.924C1013.41 523.015 1016.96 511.824 1016.96 497.5H1014.96ZM1004.72 529.568C997.966 536.809 988.099 540.5 974.955 540.5V542.5C988.478 542.5 998.945 538.691 1006.19 530.932L1004.72 529.568ZM1033.61 364V363H1032.61V364H1033.61ZM1068.11 364L1069.08 363.753L1068.89 363H1068.11V364ZM1094.86 468.75L1093.89 468.997L1094.08 469.75H1094.86V468.75ZM1095.36 468.75V469.75H1096.36V468.75H1095.36ZM1095.36 364V363H1094.36V364H1095.36ZM1119.86 364H1120.86V363H1119.86V364ZM1119.86 539V540H1120.86V539H1119.86ZM1091.61 539L1090.64 539.25L1090.84 540H1091.61V539ZM1058.61 411.25L1059.58 411L1059.39 410.25H1058.61V411.25ZM1058.11 411.25V410.25H1057.11V411.25H1058.11ZM1058.11 539V540H1059.11V539H1058.11ZM1033.61 539H1032.61V540H1033.61V539ZM1033.61 365H1068.11V363H1033.61V365ZM1067.14 364.247L1093.89 468.997L1095.83 468.503L1069.08 363.753L1067.14 364.247ZM1094.86 469.75H1095.36V467.75H1094.86V469.75ZM1096.36 468.75V364H1094.36V468.75H1096.36ZM1095.36 365H1119.86V363H1095.36V365ZM1118.86 364V539H1120.86V364H1118.86ZM1119.86 538H1091.61V540H1119.86V538ZM1092.58 538.75L1059.58 411L1057.64 411.5L1090.64 539.25L1092.58 538.75ZM1058.61 410.25H1058.11V412.25H1058.61V410.25ZM1057.11 411.25V539H1059.11V411.25H1057.11ZM1058.11 538H1033.61V540H1058.11V538ZM1034.61 539V364H1032.61V539H1034.61ZM1140.3 364V363H1139.3V364H1140.3ZM1215.3 364H1216.3V363H1215.3V364ZM1215.3 389V390H1216.3V389H1215.3ZM1167.8 389V388H1166.8V389H1167.8ZM1167.8 435.25H1166.8V436.25H1167.8V435.25ZM1205.55 435.25H1206.55V434.25H1205.55V435.25ZM1205.55 460.25V461.25H1206.55V460.25H1205.55ZM1167.8 460.25V459.25H1166.8V460.25H1167.8ZM1167.8 514H1166.8V515H1167.8V514ZM1215.3 514H1216.3V513H1215.3V514ZM1215.3 539V540H1216.3V539H1215.3ZM1140.3 539H1139.3V540H1140.3V539ZM1140.3 365H1215.3V363H1140.3V365ZM1214.3 364V389H1216.3V364H1214.3ZM1215.3 388H1167.8V390H1215.3V388ZM1166.8 389V435.25H1168.8V389H1166.8ZM1167.8 436.25H1205.55V434.25H1167.8V436.25ZM1204.55 435.25V460.25H1206.55V435.25H1204.55ZM1205.55 459.25H1167.8V461.25H1205.55V459.25ZM1166.8 460.25V514H1168.8V460.25H1166.8ZM1167.8 515H1215.3V513H1167.8V515ZM1214.3 514V539H1216.3V514H1214.3ZM1215.3 538H1140.3V540H1215.3V538ZM1141.3 539V364H1139.3V539H1141.3ZM1231.12 364V363H1230.12V364H1231.12ZM1302.87 374L1302.16 374.698L1302.16 374.707L1302.87 374ZM1294.62 449.5L1294.25 448.572L1293.62 448.825V449.5H1294.62ZM1294.62 450H1293.62V450.744L1294.33 450.958L1294.62 450ZM1308.62 462.25L1307.7 462.647L1307.71 462.657L1307.71 462.667L1308.62 462.25ZM1313.37 530L1312.38 530.105L1312.38 530.11L1313.37 530ZM1315.87 539V540H1317.41L1316.78 538.594L1315.87 539ZM1287.87 539L1286.93 539.333L1287.16 540H1287.87V539ZM1281.37 468.75L1280.59 469.37L1280.6 469.382L1280.61 469.394L1281.37 468.75ZM1258.62 464V463H1257.62V464H1258.62ZM1258.62 539V540H1259.62V539H1258.62ZM1231.12 539H1230.12V540H1231.12V539ZM1280.87 434.75L1280.16 434.043L1280.15 434.054L1280.14 434.065L1280.87 434.75ZM1281.62 393.25L1280.83 393.857L1280.84 393.872L1280.85 393.886L1281.62 393.25ZM1258.62 389V388H1257.62V389H1258.62ZM1258.62 439H1257.62V440H1258.62V439ZM1231.12 365H1271.87V363H1231.12V365ZM1271.87 365C1285.91 365 1295.92 368.305 1302.16 374.698L1303.59 373.302C1296.82 366.361 1286.17 363 1271.87 363V365ZM1302.16 374.707C1308.4 380.945 1311.62 390.721 1311.62 404.25H1313.62C1313.62 390.446 1310.34 380.055 1303.58 373.293L1302.16 374.707ZM1311.62 404.25V415H1313.62V404.25H1311.62ZM1311.62 415C1311.62 423.983 1310.14 431.226 1307.23 436.787C1304.34 442.327 1300.03 446.245 1294.25 448.572L1294.99 450.428C1301.22 447.922 1305.9 443.673 1309.01 437.713C1312.11 431.774 1313.62 424.184 1313.62 415H1311.62ZM1293.62 449.5V450H1295.62V449.5H1293.62ZM1294.33 450.958C1300.73 452.877 1305.16 456.762 1307.7 462.647L1309.54 461.853C1306.75 455.405 1301.85 451.123 1294.91 449.042L1294.33 450.958ZM1307.71 462.667C1310.46 468.653 1311.87 476.743 1311.87 487H1313.87C1313.87 476.591 1312.45 468.18 1309.53 461.832L1307.71 462.667ZM1311.87 487V517.75H1313.87V487H1311.87ZM1311.87 517.75C1311.87 522.768 1312.04 526.889 1312.38 530.105L1314.37 529.895C1314.04 526.777 1313.87 522.732 1313.87 517.75H1311.87ZM1312.38 530.11C1312.72 533.221 1313.59 536.32 1314.96 539.406L1316.78 538.594C1315.49 535.68 1314.69 532.779 1314.36 529.89L1312.38 530.11ZM1315.87 538H1287.87V540H1315.87V538ZM1288.81 538.667C1287.83 535.887 1287.18 533.288 1286.86 530.868L1284.88 531.132C1285.22 533.712 1285.91 536.446 1286.93 539.333L1288.81 538.667ZM1286.86 530.868C1286.54 528.442 1286.37 524.004 1286.37 517.5H1284.37C1284.37 523.996 1284.54 528.558 1284.88 531.132L1286.86 530.868ZM1286.37 517.5V485.5H1284.37V517.5H1286.37ZM1286.37 485.5C1286.37 477.454 1285.04 471.558 1282.14 468.106L1280.61 469.394C1283.03 472.275 1284.37 477.546 1284.37 485.5H1286.37ZM1282.16 468.13C1279.38 464.613 1274.58 463 1268.12 463V465C1274.32 465 1278.36 466.554 1280.59 469.37L1282.16 468.13ZM1268.12 463H1258.62V465H1268.12V463ZM1257.62 464V539H1259.62V464H1257.62ZM1258.62 538H1231.12V540H1258.62V538ZM1232.12 539V364H1230.12V539H1232.12ZM1268.62 440C1274.28 440 1278.68 438.541 1281.6 435.435L1280.14 434.065C1277.73 436.626 1273.96 438 1268.62 438V440ZM1281.58 435.457C1284.69 432.344 1286.12 427.265 1286.12 420.5H1284.12C1284.12 427.068 1282.72 431.489 1280.16 434.043L1281.58 435.457ZM1286.12 420.5V407H1284.12V420.5H1286.12ZM1286.12 407C1286.12 400.587 1284.95 395.717 1282.39 392.614L1280.85 393.886C1282.96 396.45 1284.12 400.746 1284.12 407H1286.12ZM1282.42 392.643C1280 389.481 1276.15 388 1271.12 388V390C1275.76 390 1278.91 391.353 1280.83 393.857L1282.42 392.643ZM1271.12 388H1258.62V390H1271.12V388ZM1257.62 389V439H1259.62V389H1257.62ZM1258.62 440H1268.62V438H1258.62V440Z" fill="white" mask="url(#path-4-outside-2_927_120)"/>
</g>
<g filter="url(#filter3_d_927_120)">
<path d="M463.25 617.5C449.917 617.5 439.75 613.75 432.75 606.25C425.75 598.583 422.25 587.667 422.25 573.5V440H449.75V575.5C449.75 581.5 450.917 585.833 453.25 588.5C455.75 591.167 459.25 592.5 463.75 592.5C468.25 592.5 471.667 591.167 474 588.5C476.5 585.833 477.75 581.5 477.75 575.5V440H504.25V573.5C504.25 587.667 500.75 598.583 493.75 606.25C486.75 613.75 476.583 617.5 463.25 617.5ZM523.836 440H551.336V615H523.836V440ZM611.971 440H653.971C667.637 440 677.887 443.667 684.721 451C691.554 458.333 694.971 469.083 694.971 483.25V571.75C694.971 585.917 691.554 596.667 684.721 604C677.887 611.333 667.637 615 653.971 615H611.971V440ZM653.471 590C657.971 590 661.387 588.667 663.721 586C666.221 583.333 667.471 579 667.471 573V482C667.471 476 666.221 471.667 663.721 469C661.387 466.333 657.971 465 653.471 465H639.471V590H653.471ZM713.533 440H788.533V465H741.033V511.25H778.783V536.25H741.033V590H788.533V615H713.533V440ZM840.592 617.5C827.258 617.5 817.175 613.75 810.342 606.25C803.508 598.583 800.092 587.667 800.092 573.5V563.5H826.092V575.5C826.092 586.833 830.842 592.5 840.342 592.5C845.008 592.5 848.508 591.167 850.842 588.5C853.342 585.667 854.592 581.167 854.592 575C854.592 567.667 852.925 561.25 849.592 555.75C846.258 550.083 840.092 543.333 831.092 535.5C819.758 525.5 811.842 516.5 807.342 508.5C802.842 500.333 800.592 491.167 800.592 481C800.592 467.167 804.092 456.5 811.092 449C818.092 441.333 828.258 437.5 841.592 437.5C854.758 437.5 864.675 441.333 871.342 449C878.175 456.5 881.592 467.333 881.592 481.5V488.75H855.592V479.75C855.592 473.75 854.425 469.417 852.092 466.75C849.758 463.917 846.342 462.5 841.842 462.5C832.675 462.5 828.092 468.083 828.092 479.25C828.092 485.583 829.758 491.5 833.092 497C836.592 502.5 842.842 509.167 851.842 517C863.342 527 871.258 536.083 875.592 544.25C879.925 552.417 882.092 562 882.092 573C882.092 587.333 878.508 598.333 871.342 606C864.342 613.667 854.092 617.5 840.592 617.5ZM897.859 440H925.359V615H897.859V440ZM984.955 617.5C971.622 617.5 961.455 613.75 954.455 606.25C947.455 598.583 943.955 587.667 943.955 573.5V481.5C943.955 467.333 947.455 456.5 954.455 449C961.455 441.333 971.622 437.5 984.955 437.5C998.288 437.5 1008.46 441.333 1015.46 449C1022.46 456.5 1025.96 467.333 1025.96 481.5V496.5H999.955V479.75C999.955 468.25 995.205 462.5 985.705 462.5C976.205 462.5 971.455 468.25 971.455 479.75V575.5C971.455 586.833 976.205 592.5 985.705 592.5C995.205 592.5 999.955 586.833 999.955 575.5V541.25H986.205V516.25H1025.96V573.5C1025.96 587.667 1022.46 598.583 1015.46 606.25C1008.46 613.75 998.288 617.5 984.955 617.5ZM1043.61 440H1078.11L1104.86 544.75H1105.36V440H1129.86V615H1101.61L1068.61 487.25H1068.11V615H1043.61V440ZM1150.3 440H1225.3V465H1177.8V511.25H1215.55V536.25H1177.8V590H1225.3V615H1150.3V440ZM1241.12 440H1281.87C1296.04 440 1306.37 443.333 1312.87 450C1319.37 456.5 1322.62 466.583 1322.62 480.25V491C1322.62 509.167 1316.62 520.667 1304.62 525.5V526C1311.29 528 1315.95 532.083 1318.62 538.25C1321.45 544.417 1322.87 552.667 1322.87 563V593.75C1322.87 598.75 1323.04 602.833 1323.37 606C1323.7 609 1324.54 612 1325.87 615H1297.87C1296.87 612.167 1296.2 609.5 1295.87 607C1295.54 604.5 1295.37 600 1295.37 593.5V561.5C1295.37 553.5 1294.04 547.917 1291.37 544.75C1288.87 541.583 1284.45 540 1278.12 540H1268.62V615H1241.12V440ZM1278.62 515C1284.12 515 1288.2 513.583 1290.87 510.75C1293.7 507.917 1295.12 503.167 1295.12 496.5V483C1295.12 476.667 1293.95 472.083 1291.62 469.25C1289.45 466.417 1285.95 465 1281.12 465H1268.62V515H1278.62Z" fill="white"/>
</g>
<defs>
<filter id="filter0_d_927_120" x="6.25" y="35.5" width="1716.53" height="203" filterUnits="userSpaceOnUse" color-interpolation-filters="sRGB">
<feFlood flood-opacity="0" result="BackgroundImageFix"/>
<feColorMatrix in="SourceAlpha" type="matrix" values="0 0 0 0 0 0 0 0 0 0 0 0 0 0 0 0 0 0 127 0" result="hardAlpha"/>
<feOffset dy="19"/>
<feGaussianBlur stdDeviation="2"/>
<feComposite in2="hardAlpha" operator="out"/>
<feColorMatrix type="matrix" values="0 0 0 0 1 0 0 0 0 1 0 0 0 0 1 0 0 0 1 0"/>
<feBlend mode="normal" in2="BackgroundImageFix" result="effect1_dropShadow_927_120"/>
<feBlend mode="normal" in="SourceGraphic" in2="effect1_dropShadow_927_120" result="shape"/>
</filter>
<filter id="filter1_d_927_120" x="16.25" y="111.5" width="1716.53" height="203" filterUnits="userSpaceOnUse" color-interpolation-filters="sRGB">
<feFlood flood-opacity="0" result="BackgroundImageFix"/>
<feColorMatrix in="SourceAlpha" type="matrix" values="0 0 0 0 0 0 0 0 0 0 0 0 0 0 0 0 0 0 127 0" result="hardAlpha"/>
<feOffset dy="19"/>
<feGaussianBlur stdDeviation="2"/>
<feComposite in2="hardAlpha" operator="out"/>
<feColorMatrix type="matrix" values="0 0 0 0 1 0 0 0 0 1 0 0 0 0 1 0 0 0 1 0"/>
<feBlend mode="normal" in2="BackgroundImageFix" result="effect1_dropShadow_927_120"/>
<feBlend mode="normal" in="SourceGraphic" in2="effect1_dropShadow_927_120" result="shape"/>
</filter>
<filter id="filter2_d_927_120" x="408.25" y="361.5" width="911.625" height="203" filterUnits="userSpaceOnUse" color-interpolation-filters="sRGB">
<feFlood flood-opacity="0" result="BackgroundImageFix"/>
<feColorMatrix in="SourceAlpha" type="matrix" values="0 0 0 0 0 0 0 0 0 0 0 0 0 0 0 0 0 0 127 0" result="hardAlpha"/>
<feOffset dy="19"/>
<feGaussianBlur stdDeviation="2"/>
<feComposite in2="hardAlpha" operator="out"/>
<feColorMatrix type="matrix" values="0 0 0 0 1 0 0 0 0 1 0 0 0 0 1 0 0 0 1 0"/>
<feBlend mode="normal" in2="BackgroundImageFix" result="effect1_dropShadow_927_120"/>
<feBlend mode="normal" in="SourceGraphic" in2="effect1_dropShadow_927_120" result="shape"/>
</filter>
<filter id="filter3_d_927_120" x="418.25" y="437.5" width="911.625" height="203" filterUnits="userSpaceOnUse" color-interpolation-filters="sRGB">
<feFlood flood-opacity="0" result="BackgroundImageFix"/>
<feColorMatrix in="SourceAlpha" type="matrix" values="0 0 0 0 0 0 0 0 0 0 0 0 0 0 0 0 0 0 127 0" result="hardAlpha"/>
<feOffset dy="19"/>
<feGaussianBlur stdDeviation="2"/>
<feComposite in2="hardAlpha" operator="out"/>
<feColorMatrix type="matrix" values="0 0 0 0 1 0 0 0 0 1 0 0 0 0 1 0 0 0 1 0"/>
<feBlend mode="normal" in2="BackgroundImageFix" result="effect1_dropShadow_927_120"/>
<feBlend mode="normal" in="SourceGraphic" in2="effect1_dropShadow_927_120" result="shape"/>
</filter>
</defs>
</svg>
